<svg width="72" height="38" viewBox="0 0 72 38" fill="none" xmlns="http://www.w3.org/2000/svg">
<mask id="mask0_1671_2019" style="mask-type:luminance" maskUnits="userSpaceOnUse" x="37" y="0" width="35" height="35">
<path d="M37.1218 0.5H71.5V34.727H37.1218V0.5Z" fill="white"/>
</mask>
<g mask="url(#mask0_1671_2019)">
<path d="M58.2941 15.3107C47.0502 14.9918 38.2061 20.7356 37.7565 32.2721C37.6639 34.5372 37.8243 34.7122 40.0192 34.7122C45.7924 34.7204 51.5673 34.727 57.3339 34.7122C65.8342 34.6893 70.9777 29.9007 71.3661 21.3031C71.6471 14.9853 71.5182 8.65113 71.5859 2.32679C71.6008 1.26538 71.2967 0.621004 70.1232 0.637359C63.1914 0.742028 56.2364 0.499979 49.3343 1.03805C42.9512 1.5385 38.2887 5.87902 37.535 11.6146C37.0706 15.1357 37.4507 18.773 37.4507 22.9009C37.9466 21.5075 38.2656 20.5916 38.6011 19.6742C41.115 12.8641 46.1742 9.27261 53.2878 9.24317C55.9092 9.22681 58.5371 9.24971 61.1584 9.23499C62.0791 9.22681 62.8112 9.40999 62.7881 10.5532C62.7187 13.9239 62.9253 17.3256 62.5055 20.6522C61.8278 26.0083 56.1521 28.3258 51.7111 25.2887C49.6021 23.8413 49.1525 20.8942 51.0483 19.1737C52.4052 17.9471 54.1489 17.1523 55.7571 16.2348C56.3885 15.8782 57.1273 15.7278 58.2941 15.3107Z" fill="#E2E417"/>
</g>
<path d="M5.37906 33.117L5.57739 33.1104V30.0946L5.5245 30.1012C4.98239 30.1012 4.51299 29.9164 4.11632 29.5451C3.71965 29.1755 3.5147 28.7143 3.50148 28.1648V18.0118H2.94614C2.2718 18.0118 1.69332 18.2506 1.21401 18.7249C0.738003 19.1959 0.5 19.7651 0.5 20.4323V28.1648C0.503306 28.8452 0.638835 29.4846 0.903282 30.0816C1.17104 30.6752 1.533 31.1937 1.98752 31.6385C2.44534 32.0801 2.9792 32.4301 3.58742 32.6918C4.15103 32.9371 4.74769 33.0646 5.37906 33.0777V33.117Z" fill="#65B554"/>
<path d="M5.37906 33.117L5.57739 33.1104V30.0946L5.5245 30.1012C4.98239 30.1012 4.51299 29.9164 4.11632 29.5451C3.71965 29.1755 3.5147 28.7143 3.50148 28.1648V18.0118H2.94614C2.2718 18.0118 1.69332 18.2506 1.21401 18.7249C0.738003 19.1959 0.5 19.7651 0.5 20.4323V28.1648C0.503306 28.8452 0.638835 29.4846 0.903282 30.0816C1.17104 30.6752 1.533 31.1937 1.98752 31.6385C2.44534 32.0801 2.9792 32.4301 3.58742 32.6918C4.15103 32.9371 4.74769 33.0646 5.37906 33.0777V33.117Z" fill="white" fill-opacity="0.975"/>
<path d="M7.10628 33.9478C7.35255 33.9478 7.58229 33.9936 7.79385 34.0852C8.00871 34.18 8.19713 34.3092 8.3558 34.4711C8.51777 34.6314 8.64669 34.8211 8.73925 35.0403C8.8318 35.2578 8.87808 35.4884 8.87808 35.7337C8.87808 35.9774 8.8318 36.2064 8.73925 36.4206C8.64669 36.6332 8.51777 36.8213 8.3558 36.9832C8.19713 37.1435 8.00871 37.271 7.79385 37.3626C7.58229 37.4542 7.35255 37.5 7.10628 37.5C6.85837 37.5 6.62532 37.4542 6.4055 37.3626C6.18898 37.271 5.99891 37.1435 5.83694 36.9832C5.67827 36.8213 5.55266 36.6332 5.4601 36.4206C5.36754 36.2064 5.32126 35.9774 5.32126 35.7337C5.32126 35.4884 5.36754 35.2578 5.4601 35.0403C5.55266 34.8211 5.67827 34.6314 5.83694 34.4711C5.99891 34.3092 6.18898 34.18 6.4055 34.0852C6.62532 33.9936 6.85837 33.9478 7.10628 33.9478ZM5.28821 33.13C6.30633 33.13 7.25173 32.8226 8.12441 32.2076C9.01361 31.5502 9.60036 30.8257 9.88298 30.0357C10.116 29.4911 10.2466 28.8091 10.273 27.9881C10.2945 27.4435 10.3061 26.7043 10.3061 25.7705C9.87803 25.7312 9.50284 25.7116 9.1822 25.7116C8.72768 25.7116 8.37563 25.7541 8.12441 25.8359C7.68311 25.9847 7.41866 26.2071 7.33107 26.5031C7.24677 26.8008 7.20545 27.105 7.20545 27.419L7.21868 27.7723C7.21868 28.0127 7.20545 28.2531 7.17901 28.4919C7.12942 28.8975 6.95092 29.2556 6.6435 29.5647C6.51128 29.7087 6.2898 29.8379 5.98238 29.9507C5.77413 30.0259 5.54274 30.075 5.28821 30.1012V33.13Z" fill="#65B554"/>
<path d="M7.10628 33.9478C7.35255 33.9478 7.58229 33.9936 7.79385 34.0852C8.00871 34.18 8.19713 34.3092 8.3558 34.4711C8.51777 34.6314 8.64669 34.8211 8.73925 35.0403C8.8318 35.2578 8.87808 35.4884 8.87808 35.7337C8.87808 35.9774 8.8318 36.2064 8.73925 36.4206C8.64669 36.6332 8.51777 36.8213 8.3558 36.9832C8.19713 37.1435 8.00871 37.271 7.79385 37.3626C7.58229 37.4542 7.35255 37.5 7.10628 37.5C6.85837 37.5 6.62532 37.4542 6.4055 37.3626C6.18898 37.271 5.99891 37.1435 5.83694 36.9832C5.67827 36.8213 5.55266 36.6332 5.4601 36.4206C5.36754 36.2064 5.32126 35.9774 5.32126 35.7337C5.32126 35.4884 5.36754 35.2578 5.4601 35.0403C5.55266 34.8211 5.67827 34.6314 5.83694 34.4711C5.99891 34.3092 6.18898 34.18 6.4055 34.0852C6.62532 33.9936 6.85837 33.9478 7.10628 33.9478ZM5.28821 33.13C6.30633 33.13 7.25173 32.8226 8.12441 32.2076C9.01361 31.5502 9.60036 30.8257 9.88298 30.0357C10.116 29.4911 10.2466 28.8091 10.273 27.9881C10.2945 27.4435 10.3061 26.7043 10.3061 25.7705C9.87803 25.7312 9.50284 25.7116 9.1822 25.7116C8.72768 25.7116 8.37563 25.7541 8.12441 25.8359C7.68311 25.9847 7.41866 26.2071 7.33107 26.5031C7.24677 26.8008 7.20545 27.105 7.20545 27.419L7.21868 27.7723C7.21868 28.0127 7.20545 28.2531 7.17901 28.4919C7.12942 28.8975 6.95092 29.2556 6.6435 29.5647C6.51128 29.7087 6.2898 29.8379 5.98238 29.9507C5.77413 30.0259 5.54274 30.075 5.28821 30.1012V33.13Z" fill="white" fill-opacity="0.975"/>
<path d="M18.6277 28.8975C18.6806 28.7716 18.7202 28.6424 18.7467 28.5115C18.7764 28.3774 18.793 28.2401 18.793 28.0994C18.793 27.8165 18.7368 27.5532 18.6277 27.3078C18.5219 27.0593 18.3765 26.8466 18.1913 26.6667C18.0062 26.4885 17.7897 26.3462 17.5435 26.2415C17.2955 26.1336 17.0344 26.078 16.7567 26.078C16.4741 26.078 16.2096 26.1336 15.9634 26.2415C15.7155 26.3462 15.4973 26.4885 15.3089 26.6667C15.1238 26.8466 14.9783 27.0593 14.8725 27.3078C14.7668 27.5532 14.7139 27.8165 14.7139 28.0994C14.7139 28.3791 14.7668 28.6424 14.8725 28.891C14.9783 29.1363 15.1238 29.3489 15.3089 29.5321C15.4973 29.7153 15.7155 29.8624 15.9634 29.9704C16.2096 30.0751 16.4741 30.1274 16.7567 30.1274C17.0873 30.1274 17.393 30.0522 17.6757 29.8984C17.9567 29.7414 18.188 29.5419 18.3699 29.2966L18.6277 28.8975ZM22.6142 33.0843H19.6789L17.3054 37.1926L14.6742 35.6945L16.1882 33.0843C15.5485 33.0189 14.9535 32.8423 14.4031 32.5544C13.8511 32.2633 13.3734 31.8937 12.9685 31.4488C12.5619 31.004 12.2429 30.497 12.0099 29.9246C11.7802 29.3489 11.6661 28.7405 11.6661 28.0994C11.6661 27.406 11.8 26.7551 12.0694 26.1434C12.3371 25.5285 12.7008 24.9953 13.1602 24.5406C13.623 24.0876 14.1618 23.7295 14.78 23.4678C15.4014 23.2028 16.0592 23.0687 16.7567 23.0687C17.4525 23.0687 18.1087 23.2028 18.7269 23.4678C19.3483 23.7295 19.8871 24.0876 20.3466 24.5406C20.8094 24.9953 21.1746 25.5285 21.4441 26.1434C21.7118 26.7551 21.8473 27.406 21.8473 28.0994C21.8473 28.7978 21.7102 29.4568 21.4374 30.0751H22.6142V33.0843Z" fill="#65B554"/>
<path d="M18.6277 28.8975C18.6806 28.7716 18.7202 28.6424 18.7467 28.5115C18.7764 28.3774 18.793 28.2401 18.793 28.0994C18.793 27.8165 18.7368 27.5532 18.6277 27.3078C18.5219 27.0593 18.3765 26.8466 18.1913 26.6667C18.0062 26.4885 17.7897 26.3462 17.5435 26.2415C17.2955 26.1336 17.0344 26.078 16.7567 26.078C16.4741 26.078 16.2096 26.1336 15.9634 26.2415C15.7155 26.3462 15.4973 26.4885 15.3089 26.6667C15.1238 26.8466 14.9783 27.0593 14.8725 27.3078C14.7668 27.5532 14.7139 27.8165 14.7139 28.0994C14.7139 28.3791 14.7668 28.6424 14.8725 28.891C14.9783 29.1363 15.1238 29.3489 15.3089 29.5321C15.4973 29.7153 15.7155 29.8624 15.9634 29.9704C16.2096 30.0751 16.4741 30.1274 16.7567 30.1274C17.0873 30.1274 17.393 30.0522 17.6757 29.8984C17.9567 29.7414 18.188 29.5419 18.3699 29.2966L18.6277 28.8975ZM22.6142 33.0843H19.6789L17.3054 37.1926L14.6742 35.6945L16.1882 33.0843C15.5485 33.0189 14.9535 32.8423 14.4031 32.5544C13.8511 32.2633 13.3734 31.8937 12.9685 31.4488C12.5619 31.004 12.2429 30.497 12.0099 29.9246C11.7802 29.3489 11.6661 28.7405 11.6661 28.0994C11.6661 27.406 11.8 26.7551 12.0694 26.1434C12.3371 25.5285 12.7008 24.9953 13.1602 24.5406C13.623 24.0876 14.1618 23.7295 14.78 23.4678C15.4014 23.2028 16.0592 23.0687 16.7567 23.0687C17.4525 23.0687 18.1087 23.2028 18.7269 23.4678C19.3483 23.7295 19.8871 24.0876 20.3466 24.5406C20.8094 24.9953 21.1746 25.5285 21.4441 26.1434C21.7118 26.7551 21.8473 27.406 21.8473 28.0994C21.8473 28.7978 21.7102 29.4568 21.4374 30.0751H22.6142V33.0843Z" fill="white" fill-opacity="0.975"/>
<path d="M22.2213 30.0619H22.3138C22.5865 30.0619 22.846 30.0096 23.0939 29.9049C23.3452 29.8003 23.5633 29.6596 23.7484 29.4797C23.9336 29.2965 24.079 29.0856 24.1848 28.8451C24.2906 28.6015 24.3434 28.3447 24.3434 28.0732H24.317C24.317 27.3765 24.4492 26.7223 24.7137 26.1107C24.9781 25.4957 25.3384 24.9642 25.7979 24.5144C26.2607 24.0614 26.7995 23.7016 27.4176 23.435C28.0341 23.1701 28.6936 23.036 29.3944 23.036H29.5597C30.2605 23.036 30.9183 23.1701 31.5364 23.435C32.1579 23.7016 32.6967 24.0614 33.1562 24.5144C33.6189 24.9642 33.9842 25.4957 34.2536 26.1107C34.5214 26.7223 34.6569 27.3765 34.6569 28.0732C34.6569 28.7585 34.5214 29.4045 34.2536 30.0096C33.9842 30.6164 33.6189 31.1479 33.1562 31.6058C32.6967 32.0637 32.1579 32.4268 31.5364 32.6918C30.9183 32.9534 30.2605 33.0843 29.5597 33.0843H29.4737V30.0619H29.5597C29.8406 30.0619 30.1084 30.0096 30.3596 29.9049C30.6109 29.8003 30.829 29.6596 31.0141 29.4797C31.1992 29.2965 31.3463 29.0856 31.4571 28.8451C31.5662 28.6015 31.6224 28.3447 31.6224 28.0732C31.6224 27.7854 31.5662 27.5204 31.4571 27.2751C31.3463 27.0314 31.1992 26.8172 31.0141 26.634C30.829 26.4476 30.6109 26.3004 30.3596 26.1957C30.1084 26.091 29.8406 26.0387 29.5597 26.0387H29.3944C29.1118 26.0387 28.8457 26.091 28.5944 26.1957C28.3465 26.3004 28.1317 26.4476 27.9465 26.634C27.7614 26.8172 27.6127 27.0314 27.5036 27.2751C27.3929 27.5204 27.3383 27.7854 27.3383 28.0732H27.378C27.378 28.7585 27.2424 29.4045 26.9747 30.0096C26.7102 30.6164 26.3483 31.1479 25.8905 31.6058C25.431 32.0637 24.8938 32.4268 24.2773 32.6918C23.6592 32.9534 23.0047 33.0843 22.3138 33.0843H22.2213V30.0619Z" fill="#65B554"/>
<path d="M22.2213 30.0619H22.3138C22.5865 30.0619 22.846 30.0096 23.0939 29.9049C23.3452 29.8003 23.5633 29.6596 23.7484 29.4797C23.9336 29.2965 24.079 29.0856 24.1848 28.8451C24.2906 28.6015 24.3434 28.3447 24.3434 28.0732H24.317C24.317 27.3765 24.4492 26.7223 24.7137 26.1107C24.9781 25.4957 25.3384 24.9642 25.7979 24.5144C26.2607 24.0614 26.7995 23.7016 27.4176 23.435C28.0341 23.1701 28.6936 23.036 29.3944 23.036H29.5597C30.2605 23.036 30.9183 23.1701 31.5364 23.435C32.1579 23.7016 32.6967 24.0614 33.1562 24.5144C33.6189 24.9642 33.9842 25.4957 34.2536 26.1107C34.5214 26.7223 34.6569 27.3765 34.6569 28.0732C34.6569 28.7585 34.5214 29.4045 34.2536 30.0096C33.9842 30.6164 33.6189 31.1479 33.1562 31.6058C32.6967 32.0637 32.1579 32.4268 31.5364 32.6918C30.9183 32.9534 30.2605 33.0843 29.5597 33.0843H29.4737V30.0619H29.5597C29.8406 30.0619 30.1084 30.0096 30.3596 29.9049C30.6109 29.8003 30.829 29.6596 31.0141 29.4797C31.1992 29.2965 31.3463 29.0856 31.4571 28.8451C31.5662 28.6015 31.6224 28.3447 31.6224 28.0732C31.6224 27.7854 31.5662 27.5204 31.4571 27.2751C31.3463 27.0314 31.1992 26.8172 31.0141 26.634C30.829 26.4476 30.6109 26.3004 30.3596 26.1957C30.1084 26.091 29.8406 26.0387 29.5597 26.0387H29.3944C29.1118 26.0387 28.8457 26.091 28.5944 26.1957C28.3465 26.3004 28.1317 26.4476 27.9465 26.634C27.7614 26.8172 27.6127 27.0314 27.5036 27.2751C27.3929 27.5204 27.3383 27.7854 27.3383 28.0732H27.378C27.378 28.7585 27.2424 29.4045 26.9747 30.0096C26.7102 30.6164 26.3483 31.1479 25.8905 31.6058C25.431 32.0637 24.8938 32.4268 24.2773 32.6918C23.6592 32.9534 23.0047 33.0843 22.3138 33.0843H22.2213V30.0619Z" fill="white" fill-opacity="0.975"/>
</svg>
