<svg width="92" height="48" viewBox="0 0 92 48" fill="none" xmlns="http://www.w3.org/2000/svg">
<mask id="mask0_422_7081" style="mask-type:luminance" maskUnits="userSpaceOnUse" x="47" y="0" width="45" height="45">
<path d="M47.4282 0H91.1949V44.036H47.4282V0Z" fill="white"/>
</mask>
<g mask="url(#mask0_422_7081)">
<path d="M74.3826 19.0553C60.068 18.645 48.8086 26.0349 48.2362 40.8776C48.1184 43.7919 48.3225 44.0171 51.1168 44.0171C58.4667 44.0276 65.8187 44.036 73.1601 44.0171C83.9818 43.9876 90.53 37.8266 91.0245 26.765C91.3822 18.6366 91.218 10.4872 91.3043 2.35036C91.3233 0.984752 90.9361 0.155711 89.4421 0.176752C80.6173 0.311419 71.7629 1.92225e-06 62.9759 0.692273C54.8496 1.33615 48.9138 6.92061 47.9543 14.2999C47.363 18.8302 47.847 23.5099 47.847 28.8208C48.4782 27.028 48.8843 25.8497 49.3115 24.6693C52.5119 15.9075 58.9528 11.2868 68.0091 11.2489C71.3463 11.2278 74.6919 11.2573 78.0291 11.2384C79.2012 11.2278 80.1333 11.4635 80.1038 12.9343C80.0155 17.271 80.2785 21.6477 79.744 25.9275C78.8813 32.8187 71.6556 35.8003 66.0017 31.8929C63.3168 30.0307 62.7445 26.239 65.1579 24.0254C66.8855 22.4473 69.1054 21.4246 71.1527 20.2442C71.9565 19.7855 72.8971 19.5919 74.3826 19.0553Z" fill="#E2E417"/>
</g>
<path d="M7.01668 41.9646L7.26918 41.9562V38.0761L7.20184 38.0845C6.51168 38.0845 5.91409 37.8467 5.40909 37.3691C4.90409 36.8936 4.64318 36.3002 4.62634 35.5932V22.5305H3.91934C3.06084 22.5305 2.32438 22.8377 1.71418 23.4479C1.10818 24.0539 0.805176 24.7862 0.805176 25.6447V35.5932C0.809384 36.4685 0.981926 37.2912 1.31859 38.0593C1.65947 38.8231 2.12028 39.4901 2.69893 40.0624C3.28178 40.6306 3.96143 41.0809 4.73576 41.4175C5.45328 41.7331 6.21288 41.8973 7.01668 41.9141V41.9646Z" fill="#332F2F"/>
<path d="M9.21558 43.0335C9.52911 43.0335 9.82158 43.0924 10.0909 43.2103C10.3645 43.3323 10.6043 43.4985 10.8063 43.7068C11.0125 43.913 11.1767 44.1571 11.2945 44.4391C11.4123 44.7189 11.4713 45.0156 11.4713 45.3313C11.4713 45.6448 11.4123 45.9394 11.2945 46.215C11.1767 46.4885 11.0125 46.7305 10.8063 46.9388C10.6043 47.145 10.3645 47.3092 10.0909 47.427C9.82158 47.5448 9.52911 47.6038 9.21558 47.6038C8.89996 47.6038 8.60327 47.5448 8.32342 47.427C8.04777 47.3092 7.80579 47.145 7.59958 46.9388C7.39758 46.7305 7.23767 46.4885 7.11983 46.215C7.002 45.9394 6.94308 45.6448 6.94308 45.3313C6.94308 45.0156 7.002 44.7189 7.11983 44.4391C7.23767 44.1571 7.39758 43.913 7.59958 43.7068C7.80579 43.4985 8.04777 43.3323 8.32342 43.2103C8.60327 43.0924 8.89996 43.0335 9.21558 43.0335ZM6.901 41.9814C8.19717 41.9814 9.40075 41.5858 10.5118 40.7947C11.6438 39.9488 12.3908 39.0166 12.7506 38.0003C13.0473 37.2996 13.2135 36.4222 13.2472 35.3659C13.2745 34.6652 13.2893 33.7141 13.2893 32.5127C12.7443 32.4622 12.2666 32.4369 11.8584 32.4369C11.2798 32.4369 10.8316 32.4916 10.5118 32.5968C9.94994 32.7883 9.61327 33.0745 9.50175 33.4553C9.39444 33.8383 9.34183 34.2297 9.34183 34.6337L9.35867 35.0882C9.35867 35.3975 9.34183 35.7068 9.30817 36.014C9.24504 36.5358 9.01779 36.9966 8.62642 37.3943C8.45808 37.5795 8.17613 37.7457 7.78475 37.8909C7.51963 37.9877 7.22504 38.0508 6.901 38.0845V41.9814Z" fill="#332F2F"/>
<path d="M23.8834 36.5358C23.9508 36.3738 24.0013 36.2076 24.0349 36.0393C24.0728 35.8667 24.0939 35.69 24.0939 35.509C24.0939 35.145 24.0223 34.8062 23.8834 34.4906C23.7488 34.1708 23.5636 33.8972 23.3279 33.6658C23.0923 33.4364 22.8166 33.2533 22.5031 33.1187C22.1875 32.9798 21.855 32.9083 21.5015 32.9083C21.1417 32.9083 20.805 32.9798 20.4915 33.1187C20.1759 33.2533 19.8981 33.4364 19.6583 33.6658C19.4226 33.8972 19.2374 34.1708 19.1028 34.4906C18.9681 34.8062 18.9008 35.145 18.9008 35.509C18.9008 35.8688 18.9681 36.2076 19.1028 36.5274C19.2374 36.843 19.4226 37.1166 19.6583 37.3523C19.8981 37.5879 20.1759 37.7773 20.4915 37.9162C20.805 38.0508 21.1417 38.1182 21.5015 38.1182C21.9224 38.1182 22.3116 38.0214 22.6714 37.8236C23.0291 37.6216 23.3237 37.3649 23.5552 37.0493L23.8834 36.5358ZM28.9587 41.9225H25.2217L22.2001 47.2082L18.8503 45.2808L20.7777 41.9225C19.9634 41.8383 19.2059 41.6111 18.5052 41.2408C17.8024 40.8662 17.1943 40.3907 16.6788 39.8183C16.1611 39.246 15.755 38.5937 15.4584 37.8573C15.1659 37.1166 15.0207 36.3338 15.0207 35.509C15.0207 34.6168 15.1911 33.7794 15.5341 32.9924C15.875 32.2013 16.3379 31.5153 16.9229 30.9303C17.512 30.3475 18.198 29.8867 18.9849 29.55C19.7761 29.2091 20.6136 29.0366 21.5015 29.0366C22.3874 29.0366 23.2227 29.2091 24.0097 29.55C24.8009 29.8867 25.4868 30.3475 26.0718 30.9303C26.6609 31.5153 27.126 32.2013 27.4689 32.9924C27.8098 33.7794 27.9824 34.6168 27.9824 35.509C27.9824 36.4075 27.8077 37.2555 27.4605 38.0508H28.9587V41.9225Z" fill="#332F2F"/>
<path d="M28.4584 38.034H28.5762C28.9234 38.034 29.2537 37.9667 29.5694 37.832C29.8892 37.6973 30.167 37.5164 30.4026 37.2849C30.6383 37.0493 30.8235 36.7778 30.9581 36.4685C31.0928 36.155 31.1601 35.8246 31.1601 35.4753H31.1265C31.1265 34.579 31.2948 33.7373 31.6315 32.9503C31.9681 32.1592 32.4268 31.4753 33.0118 30.8967C33.601 30.3138 34.2869 29.8509 35.0739 29.5079C35.8587 29.167 36.6983 28.9945 37.5905 28.9945H37.8009C38.693 28.9945 39.5305 29.167 40.3175 29.5079C41.1086 29.8509 41.7946 30.3138 42.3795 30.8967C42.9687 31.4753 43.4337 32.1592 43.7767 32.9503C44.1176 33.7373 44.2901 34.579 44.2901 35.4753C44.2901 36.357 44.1176 37.1881 43.7767 37.9667C43.4337 38.7473 42.9687 39.4312 42.3795 40.0203C41.7946 40.6095 41.1086 41.0766 40.3175 41.4175C39.5305 41.7542 38.693 41.9225 37.8009 41.9225H37.6915V38.034H37.8009C38.1586 38.034 38.4995 37.9667 38.8193 37.832C39.1391 37.6973 39.4169 37.5164 39.6525 37.2849C39.8882 37.0493 40.0755 36.7778 40.2165 36.4685C40.3553 36.155 40.4269 35.8246 40.4269 35.4753C40.4269 35.105 40.3553 34.7641 40.2165 34.4485C40.0755 34.135 39.8882 33.8593 39.6525 33.6237C39.4169 33.3838 39.1391 33.1944 38.8193 33.0598C38.4995 32.9251 38.1586 32.8578 37.8009 32.8578H37.5905C37.2306 32.8578 36.8919 32.9251 36.572 33.0598C36.2564 33.1944 35.9829 33.3838 35.7472 33.6237C35.5115 33.8593 35.3222 34.135 35.1833 34.4485C35.0423 34.7641 34.9729 35.105 34.9729 35.4753H35.0234C35.0234 36.357 34.8508 37.1881 34.51 37.9667C34.1733 38.7473 33.7125 39.4312 33.1296 40.0203C32.5447 40.6095 31.8608 41.0766 31.076 41.4175C30.289 41.7542 29.4557 41.9225 28.5762 41.9225H28.4584V38.034Z" fill="#332F2F"/>
</svg>
