<svg width="25" height="25" viewBox="0 0 25 25" fill="none" xmlns="http://www.w3.org/2000/svg">
<path d="M22.5 12.0641V17.0641C22.5 20.0641 20.5 22.0641 17.5 22.0641H7.5C4.5 22.0641 2.5 20.0641 2.5 17.0641V12.0641C2.5 9.34409 4.14 7.44408 6.69 7.12408C6.95 7.08408 7.22 7.06409 7.5 7.06409H17.5C17.76 7.06409 18.01 7.07407 18.25 7.11407C20.83 7.41407 22.5 9.32409 22.5 12.0641Z" stroke="#65B554" stroke-width="1.5" stroke-linecap="round" stroke-linejoin="round"/>
<path d="M18.2514 7.11409C18.0114 7.07409 17.7614 7.0641 17.5014 7.0641H7.50141C7.22141 7.0641 6.95141 7.0841 6.69141 7.1241C6.83141 6.8441 7.03141 6.5841 7.27141 6.3441L10.5214 3.08409C11.8914 1.72409 14.1114 1.72409 15.4814 3.08409L17.2314 4.85411C17.8714 5.48411 18.2114 6.28409 18.2514 7.11409Z" stroke="#65B554" stroke-width="1.5" stroke-linecap="round" stroke-linejoin="round"/>
<path d="M22.5 12.5641H19.5C18.4 12.5641 17.5 13.4641 17.5 14.5641C17.5 15.6641 18.4 16.5641 19.5 16.5641H22.5" stroke="#65B554" stroke-width="1.5" stroke-linecap="round" stroke-linejoin="round"/>
</svg>
