<svg width="39" height="39" viewBox="0 0 39 39" fill="none" xmlns="http://www.w3.org/2000/svg">
<rect width="39" height="39" rx="19.5" fill="#FF7A00"/>
<rect width="39" height="39" rx="19.5" fill="white" fill-opacity="0.9"/>
<path d="M29.5 19C29.5 13.48 25.02 9 19.5 9C13.98 9 9.5 13.48 9.5 19C9.5 24.52 13.98 29 19.5 29" stroke="#FF7A00" stroke-width="1.5" stroke-linecap="round" stroke-linejoin="round"/>
<path d="M29.5 19C29.5 13.48 25.02 9 19.5 9C13.98 9 9.5 13.48 9.5 19C9.5 24.52 13.98 29 19.5 29" stroke="white" stroke-opacity="0.2" stroke-width="1.5" stroke-linecap="round" stroke-linejoin="round"/>
<path d="M7.5 20.0548V18C11.3933 19.9931 15.4467 21 19.5 21" stroke="#FF7A00" stroke-width="1.5" stroke-linecap="round" stroke-linejoin="round"/>
<path d="M7.5 20.0548V18C11.3933 19.9931 15.4467 21 19.5 21" stroke="white" stroke-opacity="0.2" stroke-width="1.5" stroke-linecap="round" stroke-linejoin="round"/>
<path d="M31.5 20.0548V18C28.58 19.9931 25.54 21 22.5 21" stroke="#FF7A00" stroke-width="1.5" stroke-linecap="round" stroke-linejoin="round"/>
<path d="M31.5 20.0548V18C28.58 19.9931 25.54 21 22.5 21" stroke="white" stroke-opacity="0.2" stroke-width="1.5" stroke-linecap="round" stroke-linejoin="round"/>
<path d="M25.7 29.4C27.4673 29.4 28.9 27.9673 28.9 26.2C28.9 24.4327 27.4673 23 25.7 23C23.9327 23 22.5 24.4327 22.5 26.2C22.5 27.9673 23.9327 29.4 25.7 29.4Z" stroke="#FF7A00" stroke-width="1.5" stroke-linecap="round" stroke-linejoin="round"/>
<path d="M25.7 29.4C27.4673 29.4 28.9 27.9673 28.9 26.2C28.9 24.4327 27.4673 23 25.7 23C23.9327 23 22.5 24.4327 22.5 26.2C22.5 27.9673 23.9327 29.4 25.7 29.4Z" stroke="white" stroke-opacity="0.2" stroke-width="1.5" stroke-linecap="round" stroke-linejoin="round"/>
<path d="M29.5 30L28.5 29" stroke="#FF7A00" stroke-width="1.5" stroke-linecap="round" stroke-linejoin="round"/>
<path d="M29.5 30L28.5 29" stroke="white" stroke-opacity="0.2" stroke-width="1.5" stroke-linecap="round" stroke-linejoin="round"/>
</svg>
