<svg width="25" height="24" viewBox="0 0 25 24" fill="none" xmlns="http://www.w3.org/2000/svg">
<path d="M2.75 8.50494H22.75" stroke="#32582A" stroke-width="1.5" stroke-miterlimit="10" stroke-linecap="round" stroke-linejoin="round"/>
<path d="M2.75 8.50494H22.75" stroke="white" stroke-opacity="0.7" stroke-width="1.5" stroke-miterlimit="10" stroke-linecap="round" stroke-linejoin="round"/>
<path d="M6.75 16.5049H8.75" stroke="#32582A" stroke-width="1.5" stroke-miterlimit="10" stroke-linecap="round" stroke-linejoin="round"/>
<path d="M6.75 16.5049H8.75" stroke="white" stroke-opacity="0.7" stroke-width="1.5" stroke-miterlimit="10" stroke-linecap="round" stroke-linejoin="round"/>
<path d="M11.25 16.5049H15.25" stroke="#32582A" stroke-width="1.5" stroke-miterlimit="10" stroke-linecap="round" stroke-linejoin="round"/>
<path d="M11.25 16.5049H15.25" stroke="white" stroke-opacity="0.7" stroke-width="1.5" stroke-miterlimit="10" stroke-linecap="round" stroke-linejoin="round"/>
<path d="M7.19 3.50494H18.3C21.86 3.50494 22.75 4.38494 22.75 7.89494V16.1049C22.75 19.6149 21.86 20.4949 18.31 20.4949H7.19C3.64 20.5049 2.75 19.6249 2.75 16.1149V7.89494C2.75 4.38494 3.64 3.50494 7.19 3.50494Z" stroke="#32582A" stroke-width="1.5" stroke-linecap="round" stroke-linejoin="round"/>
<path d="M7.19 3.50494H18.3C21.86 3.50494 22.75 4.38494 22.75 7.89494V16.1049C22.75 19.6149 21.86 20.4949 18.31 20.4949H7.19C3.64 20.5049 2.75 19.6249 2.75 16.1149V7.89494C2.75 4.38494 3.64 3.50494 7.19 3.50494Z" stroke="white" stroke-opacity="0.7" stroke-width="1.5" stroke-linecap="round" stroke-linejoin="round"/>
</svg>
