<svg width="16" height="16" viewBox="0 0 16 16" fill="none" xmlns="http://www.w3.org/2000/svg">
<path d="M3.64 12.3267V10.38C3.64 9.73337 4.14667 9.15336 4.86667 9.15336C5.51333 9.15336 6.09333 9.66003 6.09333 10.38V12.2534C6.09333 13.5534 5.01333 14.6334 3.71333 14.6334C2.41333 14.6334 1.33333 13.5467 1.33333 12.2534V8.1467C1.26 4.40003 4.22 1.3667 7.96667 1.3667C11.7133 1.3667 14.6667 4.40003 14.6667 8.07337V12.18C14.6667 13.48 13.5867 14.56 12.2867 14.56C10.9867 14.56 9.90667 13.48 9.90667 12.18V10.3067C9.90667 9.66003 10.4133 9.08003 11.1333 9.08003C11.78 9.08003 12.36 9.5867 12.36 10.3067V12.3267" stroke="#65B554" stroke-linecap="round" stroke-linejoin="round"/>
<path d="M3.64 12.3267V10.38C3.64 9.73337 4.14667 9.15336 4.86667 9.15336C5.51333 9.15336 6.09333 9.66003 6.09333 10.38V12.2534C6.09333 13.5534 5.01333 14.6334 3.71333 14.6334C2.41333 14.6334 1.33333 13.5467 1.33333 12.2534V8.1467C1.26 4.40003 4.22 1.3667 7.96667 1.3667C11.7133 1.3667 14.6667 4.40003 14.6667 8.07337V12.18C14.6667 13.48 13.5867 14.56 12.2867 14.56C10.9867 14.56 9.90667 13.48 9.90667 12.18V10.3067C9.90667 9.66003 10.4133 9.08003 11.1333 9.08003C11.78 9.08003 12.36 9.5867 12.36 10.3067V12.3267" stroke="black" stroke-opacity="0.15" stroke-linecap="round" stroke-linejoin="round"/>
</svg>
