<svg width="25" height="24" viewBox="0 0 25 24" fill="none" xmlns="http://www.w3.org/2000/svg">
<path d="M13.25 9H7.25" stroke="#32582A" stroke-width="1.5" stroke-linecap="round" stroke-linejoin="round"/>
<path d="M13.25 9H7.25" stroke="white" stroke-opacity="0.7" stroke-width="1.5" stroke-linecap="round" stroke-linejoin="round"/>
<path d="M22.25 10.97V13.03C22.25 13.58 21.81 14.03 21.25 14.05H19.29C18.21 14.05 17.22 13.26 17.13 12.18C17.07 11.55 17.31 10.96 17.73 10.55C18.1 10.17 18.61 9.95001 19.17 9.95001H21.25C21.81 9.97001 22.25 10.42 22.25 10.97Z" stroke="#32582A" stroke-width="1.5" stroke-linecap="round" stroke-linejoin="round"/>
<path d="M22.25 10.97V13.03C22.25 13.58 21.81 14.03 21.25 14.05H19.29C18.21 14.05 17.22 13.26 17.13 12.18C17.07 11.55 17.31 10.96 17.73 10.55C18.1 10.17 18.61 9.95001 19.17 9.95001H21.25C21.81 9.97001 22.25 10.42 22.25 10.97Z" stroke="white" stroke-opacity="0.7" stroke-width="1.5" stroke-linecap="round" stroke-linejoin="round"/>
<path d="M17.73 10.55C17.31 10.96 17.07 11.55 17.13 12.18C17.22 13.26 18.21 14.05 19.29 14.05H21.25V15.5C21.25 18.5 19.25 20.5 16.25 20.5H7.25C4.25 20.5 2.25 18.5 2.25 15.5V8.5C2.25 5.78 3.89 3.88 6.44 3.56C6.7 3.52 6.97 3.5 7.25 3.5H16.25C16.51 3.5 16.76 3.50999 17 3.54999C19.58 3.84999 21.25 5.76 21.25 8.5V9.95001H19.17C18.61 9.95001 18.1 10.17 17.73 10.55Z" stroke="#32582A" stroke-width="1.5" stroke-linecap="round" stroke-linejoin="round"/>
<path d="M17.73 10.55C17.31 10.96 17.07 11.55 17.13 12.18C17.22 13.26 18.21 14.05 19.29 14.05H21.25V15.5C21.25 18.5 19.25 20.5 16.25 20.5H7.25C4.25 20.5 2.25 18.5 2.25 15.5V8.5C2.25 5.78 3.89 3.88 6.44 3.56C6.7 3.52 6.97 3.5 7.25 3.5H16.25C16.51 3.5 16.76 3.50999 17 3.54999C19.58 3.84999 21.25 5.76 21.25 8.5V9.95001H19.17C18.61 9.95001 18.1 10.17 17.73 10.55Z" stroke="white" stroke-opacity="0.7" stroke-width="1.5" stroke-linecap="round" stroke-linejoin="round"/>
</svg>
