<svg width="16" height="16" viewBox="0 0 16 16" fill="none" xmlns="http://www.w3.org/2000/svg">
<path d="M8 5.1665V8.6665" stroke="#65B554" stroke-linecap="round" stroke-linejoin="round"/>
<path d="M8 5.1665V8.6665" stroke="black" stroke-opacity="0.15" stroke-linecap="round" stroke-linejoin="round"/>
<path d="M14.0533 5.72019V10.2802C14.0533 11.0268 13.6533 11.7202 13.0067 12.1002L9.04666 14.3869C8.39999 14.7602 7.59998 14.7602 6.94664 14.3869L2.98664 12.1002C2.33998 11.7269 1.93997 11.0335 1.93997 10.2802V5.72019C1.93997 4.97352 2.33998 4.28016 2.98664 3.90016L6.94664 1.6135C7.59331 1.24016 8.39333 1.24016 9.04666 1.6135L13.0067 3.90016C13.6533 4.28016 14.0533 4.96685 14.0533 5.72019Z" stroke="#65B554" stroke-linecap="round" stroke-linejoin="round"/>
<path d="M14.0533 5.72019V10.2802C14.0533 11.0268 13.6533 11.7202 13.0067 12.1002L9.04666 14.3869C8.39999 14.7602 7.59998 14.7602 6.94664 14.3869L2.98664 12.1002C2.33998 11.7269 1.93997 11.0335 1.93997 10.2802V5.72019C1.93997 4.97352 2.33998 4.28016 2.98664 3.90016L6.94664 1.6135C7.59331 1.24016 8.39333 1.24016 9.04666 1.6135L13.0067 3.90016C13.6533 4.28016 14.0533 4.96685 14.0533 5.72019Z" stroke="black" stroke-opacity="0.15" stroke-linecap="round" stroke-linejoin="round"/>
<path d="M8 10.7998V10.8665" stroke="#65B554" stroke-linecap="round" stroke-linejoin="round"/>
<path d="M8 10.7998V10.8665" stroke="black" stroke-opacity="0.15" stroke-linecap="round" stroke-linejoin="round"/>
</svg>
