<svg width="50" height="50" viewBox="0 0 50 50" fill="none" xmlns="http://www.w3.org/2000/svg">
<path d="M23.875 28.6043C27.1082 28.6043 29.7292 25.9833 29.7292 22.7502C29.7292 19.517 27.1082 16.896 23.875 16.896C20.6418 16.896 18.0208 19.517 18.0208 22.7502C18.0208 25.9833 20.6418 28.6043 23.875 28.6043Z" stroke="#79747E" stroke-width="1.5" stroke-linecap="round" stroke-linejoin="round"/>
<path d="M34.6875 42.0836C34.6875 37.2294 29.8542 33.271 23.875 33.271C17.8958 33.271 13.0625 37.2086 13.0625 42.0836" stroke="#79747E" stroke-width="1.5" stroke-linecap="round" stroke-linejoin="round"/>
<path d="M43.75 26.0417C43.75 36.9792 34.8958 45.8333 23.9583 45.8333C13.0208 45.8333 4.16667 36.9792 4.16667 26.0417C4.16667 15.1042 13.0208 6.25 23.9583 6.25C26.6875 6.25 29.2917 6.79165 31.6667 7.79165C31.3958 8.62498 31.25 9.5 31.25 10.4167C31.25 11.9792 31.6875 13.4583 32.4583 14.7083C32.875 15.4167 33.4167 16.0624 34.0417 16.6041C35.5 17.9374 37.4375 18.75 39.5833 18.75C40.5 18.75 41.375 18.6041 42.1875 18.3125C43.1875 20.6875 43.75 23.3125 43.75 26.0417Z" stroke="#79747E" stroke-width="1.5" stroke-linecap="round" stroke-linejoin="round"/>
<path d="M47.9167 10.4168C47.9167 11.0835 47.8333 11.7293 47.6667 12.3543C47.4792 13.1876 47.1458 14.0002 46.7083 14.7085C45.7083 16.396 44.1042 17.7084 42.1875 18.3126C41.375 18.6043 40.5 18.7502 39.5833 18.7502C37.4375 18.7502 35.5 17.9376 34.0417 16.6043C33.4167 16.0626 32.875 15.4168 32.4583 14.7085C31.6875 13.4585 31.25 11.9793 31.25 10.4168C31.25 9.50016 31.3958 8.62514 31.6667 7.79181C32.0625 6.58348 32.7292 5.50021 33.6042 4.60438C35.125 3.04188 37.25 2.0835 39.5833 2.0835C42.0417 2.0835 44.2708 3.14603 45.7708 4.85436C47.1042 6.33353 47.9167 8.29183 47.9167 10.4168Z" stroke="#65B554" stroke-width="1.5" stroke-linecap="round" stroke-linejoin="round"/>
<path d="M42.6875 10.375H36.4792" stroke="#65B554" stroke-width="1.5" stroke-linecap="round" stroke-linejoin="round"/>
<path d="M39.5833 7.3335V13.5626" stroke="#65B554" stroke-width="1.5" stroke-linecap="round" stroke-linejoin="round"/>
</svg>
