<svg width="24" height="25" viewBox="0 0 24 25" fill="none" xmlns="http://www.w3.org/2000/svg">
<rect y="0.5" width="24" height="24" rx="12" fill="#65B554"/>
<path d="M11.3333 6.3335H10C6.66668 6.3335 5.33334 7.66683 5.33334 11.0002V15.0002C5.33334 18.3335 6.66668 19.6668 10 19.6668H14C17.3333 19.6668 18.6667 18.3335 18.6667 15.0002V13.6668" stroke="#FDFEFF" stroke-linecap="round" stroke-linejoin="round"/>
<path d="M14.6933 7.0135L9.44001 12.2668C9.24001 12.4668 9.04001 12.8602 9.00001 13.1468L8.71334 15.1535C8.60668 15.8802 9.12001 16.3868 9.84668 16.2868L11.8533 16.0002C12.1333 15.9602 12.5267 15.7602 12.7333 15.5602L17.9867 10.3068C18.8933 9.40017 19.32 8.34684 17.9867 7.0135C16.6533 5.68017 15.6 6.10684 14.6933 7.0135Z" stroke="#FDFEFF" stroke-miterlimit="10" stroke-linecap="round" stroke-linejoin="round"/>
<path d="M13.94 7.7666C14.3867 9.35993 15.6333 10.6066 17.2333 11.0599" stroke="#FDFEFF" stroke-miterlimit="10" stroke-linecap="round" stroke-linejoin="round"/>
</svg>
