<svg width="35" height="35" viewBox="0 0 35 35" fill="none" xmlns="http://www.w3.org/2000/svg">
<path d="M3.06666 17.5001C3.06666 9.54751 9.54742 3.06675 17.5 3.06675C25.4526 3.06675 31.9333 9.54751 31.9333 17.5001C31.9333 25.4527 25.4526 31.9334 17.5 31.9334C9.54742 31.9334 3.06666 25.4527 3.06666 17.5001ZM18.7437 23.3334V18.7438H23.3333C24.0141 18.7438 24.5771 18.1808 24.5771 17.5001C24.5771 16.8193 24.0141 16.2563 23.3333 16.2563H18.7437V11.6667C18.7437 10.986 18.1807 10.423 17.5 10.423C16.8192 10.423 16.2562 10.986 16.2562 11.6667V16.2563H11.6667C10.9859 16.2563 10.4229 16.8193 10.4229 17.5001C10.4229 18.1808 10.9859 18.7438 11.6667 18.7438H16.2562V23.3334C16.2562 24.0142 16.8192 24.5772 17.5 24.5772C18.1807 24.5772 18.7437 24.0142 18.7437 23.3334Z" fill="#65B554"/>
<path d="M3.06666 17.5001C3.06666 9.54751 9.54742 3.06675 17.5 3.06675C25.4526 3.06675 31.9333 9.54751 31.9333 17.5001C31.9333 25.4527 25.4526 31.9334 17.5 31.9334C9.54742 31.9334 3.06666 25.4527 3.06666 17.5001ZM18.7437 23.3334V18.7438H23.3333C24.0141 18.7438 24.5771 18.1808 24.5771 17.5001C24.5771 16.8193 24.0141 16.2563 23.3333 16.2563H18.7437V11.6667C18.7437 10.986 18.1807 10.423 17.5 10.423C16.8192 10.423 16.2562 10.986 16.2562 11.6667V16.2563H11.6667C10.9859 16.2563 10.4229 16.8193 10.4229 17.5001C10.4229 18.1808 10.9859 18.7438 11.6667 18.7438H16.2562V23.3334C16.2562 24.0142 16.8192 24.5772 17.5 24.5772C18.1807 24.5772 18.7437 24.0142 18.7437 23.3334Z" fill="black" fill-opacity="0.15"/>
<path d="M3.06666 17.5001C3.06666 9.54751 9.54742 3.06675 17.5 3.06675C25.4526 3.06675 31.9333 9.54751 31.9333 17.5001C31.9333 25.4527 25.4526 31.9334 17.5 31.9334C9.54742 31.9334 3.06666 25.4527 3.06666 17.5001ZM18.7437 23.3334V18.7438H23.3333C24.0141 18.7438 24.5771 18.1808 24.5771 17.5001C24.5771 16.8193 24.0141 16.2563 23.3333 16.2563H18.7437V11.6667C18.7437 10.986 18.1807 10.423 17.5 10.423C16.8192 10.423 16.2562 10.986 16.2562 11.6667V16.2563H11.6667C10.9859 16.2563 10.4229 16.8193 10.4229 17.5001C10.4229 18.1808 10.9859 18.7438 11.6667 18.7438H16.2562V23.3334C16.2562 24.0142 16.8192 24.5772 17.5 24.5772C18.1807 24.5772 18.7437 24.0142 18.7437 23.3334Z" stroke="#FDFEFF" stroke-width="0.3"/>
</svg>
