<svg width="35" height="35" viewBox="0 0 35 35" fill="none" xmlns="http://www.w3.org/2000/svg">
<path d="M17.5 2.91675C9.45 2.91675 2.91667 9.45008 2.91667 17.5001C2.91667 25.5501 9.45 32.0834 17.5 32.0834C25.55 32.0834 32.0833 25.5501 32.0833 17.5001C32.0833 9.45008 25.55 2.91675 17.5 2.91675ZM26.0313 20.5626C25.9729 20.6938 25.9 20.8105 25.7979 20.9126L21.3646 25.3459C21.1458 25.5647 20.8688 25.6667 20.5917 25.6667C20.3146 25.6667 20.0375 25.5647 19.8188 25.3459C19.3958 24.923 19.3958 24.223 19.8188 23.8001L22.3854 21.2334H9.98959C9.39167 21.2334 8.89584 20.7376 8.89584 20.1397C8.89584 19.5417 9.39167 19.0459 9.98959 19.0459H25.025C25.1708 19.0459 25.3021 19.0751 25.4479 19.1334C25.7104 19.2501 25.9292 19.4542 26.0458 19.7313C26.1333 19.9938 26.1333 20.3001 26.0313 20.5626ZM25.0104 15.9397H9.98959C9.84375 15.9397 9.69792 15.9105 9.56667 15.8522C9.30417 15.7355 9.08542 15.5313 8.96875 15.2542C8.85209 14.9917 8.85209 14.6855 8.96875 14.423C9.02709 14.2917 9.1 14.1751 9.20209 14.073L13.6354 9.63966C14.0583 9.21675 14.7583 9.21675 15.1813 9.63966C15.6042 10.0626 15.6042 10.7626 15.1813 11.1855L12.6292 13.7522H25.025C25.6229 13.7522 26.1188 14.248 26.1188 14.8459C26.1188 15.4438 25.6229 15.9397 25.0104 15.9397Z" fill="#65B554"/>
<path d="M17.5 2.91675C9.45 2.91675 2.91667 9.45008 2.91667 17.5001C2.91667 25.5501 9.45 32.0834 17.5 32.0834C25.55 32.0834 32.0833 25.5501 32.0833 17.5001C32.0833 9.45008 25.55 2.91675 17.5 2.91675ZM26.0313 20.5626C25.9729 20.6938 25.9 20.8105 25.7979 20.9126L21.3646 25.3459C21.1458 25.5647 20.8688 25.6667 20.5917 25.6667C20.3146 25.6667 20.0375 25.5647 19.8188 25.3459C19.3958 24.923 19.3958 24.223 19.8188 23.8001L22.3854 21.2334H9.98959C9.39167 21.2334 8.89584 20.7376 8.89584 20.1397C8.89584 19.5417 9.39167 19.0459 9.98959 19.0459H25.025C25.1708 19.0459 25.3021 19.0751 25.4479 19.1334C25.7104 19.2501 25.9292 19.4542 26.0458 19.7313C26.1333 19.9938 26.1333 20.3001 26.0313 20.5626ZM25.0104 15.9397H9.98959C9.84375 15.9397 9.69792 15.9105 9.56667 15.8522C9.30417 15.7355 9.08542 15.5313 8.96875 15.2542C8.85209 14.9917 8.85209 14.6855 8.96875 14.423C9.02709 14.2917 9.1 14.1751 9.20209 14.073L13.6354 9.63966C14.0583 9.21675 14.7583 9.21675 15.1813 9.63966C15.6042 10.0626 15.6042 10.7626 15.1813 11.1855L12.6292 13.7522H25.025C25.6229 13.7522 26.1188 14.248 26.1188 14.8459C26.1188 15.4438 25.6229 15.9397 25.0104 15.9397Z" fill="black" fill-opacity="0.15"/>
</svg>
