<svg width="24" height="25" viewBox="0 0 24 25" fill="none" xmlns="http://www.w3.org/2000/svg">
<rect y="0.5" width="24" height="24" rx="12" fill="#65B554"/>
<path d="M15.8343 9.1999C15.6743 9.17323 15.5076 9.16657 15.3343 9.16657H8.66759C8.48093 9.16657 8.30093 9.1799 8.12759 9.20657C8.22093 9.0199 8.35426 8.84659 8.51426 8.68659L10.6809 6.51325C11.5943 5.60659 13.0743 5.60659 13.9876 6.51325L15.1543 7.69322C15.5809 8.11322 15.8076 8.64656 15.8343 9.1999Z" stroke="#FDFEFF" stroke-linecap="round" stroke-linejoin="round"/>
<path d="M9.99999 17.1667C9.99999 17.6667 9.85999 18.14 9.61332 18.54C9.15332 19.3133 8.30666 19.8333 7.33332 19.8333C6.35999 19.8333 5.51332 19.3133 5.05332 18.54C4.80666 18.14 4.66666 17.6667 4.66666 17.1667C4.66666 15.6933 5.85999 14.5 7.33332 14.5C8.80666 14.5 9.99999 15.6933 9.99999 17.1667Z" stroke="#FDFEFF" stroke-miterlimit="10" stroke-linecap="round" stroke-linejoin="round"/>
<path d="M8.32779 17.1531H6.34113" stroke="#FDFEFF" stroke-miterlimit="10" stroke-linecap="round" stroke-linejoin="round"/>
<path d="M7.33331 16.1797V18.173" stroke="#FDFEFF" stroke-miterlimit="10" stroke-linecap="round" stroke-linejoin="round"/>
<path d="M18.6667 12.5001V15.8334C18.6667 17.8334 17.3333 19.1667 15.3333 19.1667H9.08668C9.29334 18.9934 9.47334 18.7801 9.61334 18.5401C9.86001 18.1401 10 17.6667 10 17.1667C10 15.6934 8.80668 14.5001 7.33334 14.5001C6.53334 14.5001 5.82001 14.8534 5.33334 15.4067V12.5001C5.33334 10.6867 6.42668 9.42008 8.12668 9.20675C8.30001 9.18008 8.48001 9.16675 8.66668 9.16675H15.3333C15.5067 9.16675 15.6733 9.17341 15.8333 9.20007C17.5533 9.40007 18.6667 10.6734 18.6667 12.5001Z" stroke="#FDFEFF" stroke-linecap="round" stroke-linejoin="round"/>
<path d="M18.6667 12.8333H16.6667C15.9333 12.8333 15.3333 13.4333 15.3333 14.1666C15.3333 14.8999 15.9333 15.4999 16.6667 15.4999H18.6667" stroke="#FDFEFF" stroke-linecap="round" stroke-linejoin="round"/>
</svg>
