<svg width="35" height="35" viewBox="0 0 35 35" fill="none" xmlns="http://www.w3.org/2000/svg">
<path d="M17.5 2.91675C9.46458 2.91675 2.91667 9.46466 2.91667 17.5001C2.91667 25.5355 9.46458 32.0834 17.5 32.0834C25.5354 32.0834 32.0833 25.5355 32.0833 17.5001C32.0833 9.46466 25.5354 2.91675 17.5 2.91675ZM23.2167 18.5938H11.55C10.9521 18.5938 10.4563 18.098 10.4563 17.5001C10.4563 16.9022 10.9521 16.4063 11.55 16.4063H23.2167C23.8146 16.4063 24.3104 16.9022 24.3104 17.5001C24.3104 18.098 23.8292 18.5938 23.2167 18.5938Z" fill="#65B554"/>
<path d="M17.5 2.91675C9.46458 2.91675 2.91667 9.46466 2.91667 17.5001C2.91667 25.5355 9.46458 32.0834 17.5 32.0834C25.5354 32.0834 32.0833 25.5355 32.0833 17.5001C32.0833 9.46466 25.5354 2.91675 17.5 2.91675ZM23.2167 18.5938H11.55C10.9521 18.5938 10.4563 18.098 10.4563 17.5001C10.4563 16.9022 10.9521 16.4063 11.55 16.4063H23.2167C23.8146 16.4063 24.3104 16.9022 24.3104 17.5001C24.3104 18.098 23.8292 18.5938 23.2167 18.5938Z" fill="black" fill-opacity="0.15"/>
</svg>
