<svg width="28" height="28" viewBox="0 0 28 28" fill="none" xmlns="http://www.w3.org/2000/svg">
<rect width="28" height="28" rx="14" fill="#FF7A00" fill-opacity="0.12"/>
<path d="M22.3333 8.99984V11.0165C22.3333 12.3332 21.5 13.1665 20.1833 13.1665H17.3333V7.3415C17.3333 6.4165 18.0917 5.6665 19.0167 5.6665C19.925 5.67484 20.7584 6.0415 21.3584 6.6415C21.9584 7.24984 22.3333 8.08317 22.3333 8.99984Z" stroke="#FF7A00" stroke-width="1.5" stroke-miterlimit="10" stroke-linecap="round" stroke-linejoin="round"/>
<path d="M5.66666 9.83317V21.4998C5.66666 22.1915 6.44998 22.5832 6.99998 22.1665L8.425 21.0998C8.75833 20.8498 9.225 20.8832 9.525 21.1832L10.9083 22.5748C11.2333 22.8998 11.7667 22.8998 12.0917 22.5748L13.4917 21.1748C13.7833 20.8832 14.25 20.8498 14.575 21.0998L16 22.1665C16.55 22.5748 17.3333 22.1832 17.3333 21.4998V7.33317C17.3333 6.4165 18.0833 5.6665 19 5.6665H9.83333H9C6.5 5.6665 5.66666 7.15817 5.66666 8.99984V9.83317Z" stroke="#FF7A00" stroke-width="1.5" stroke-miterlimit="10" stroke-linecap="round" stroke-linejoin="round"/>
<path d="M9 11.5H14" stroke="#FF7A00" stroke-width="1.5" stroke-linecap="round" stroke-linejoin="round"/>
<path d="M9.625 14.8335H13.375" stroke="#FF7A00" stroke-width="1.5" stroke-linecap="round" stroke-linejoin="round"/>
</svg>
