<svg width="28" height="28" viewBox="0 0 28 28" fill="none" xmlns="http://www.w3.org/2000/svg">
<rect width="28" height="28" rx="14" fill="#F2F2F2"/>
<path d="M22.3333 8.99984V11.0165C22.3333 12.3332 21.4999 13.1665 20.1832 13.1665H17.3333V7.3415C17.3333 6.4165 18.0916 5.6665 19.0166 5.6665C19.9249 5.67484 20.7583 6.0415 21.3583 6.6415C21.9583 7.24984 22.3333 8.08317 22.3333 8.99984Z" stroke="#C5C5C5" stroke-width="1.5" stroke-miterlimit="10" stroke-linecap="round" stroke-linejoin="round"/>
<path d="M5.66675 9.83317V21.4998C5.66675 22.1915 6.45006 22.5832 7.00006 22.1665L8.42508 21.0998C8.75841 20.8498 9.22509 20.8832 9.52509 21.1832L10.9084 22.5748C11.2334 22.8998 11.7668 22.8998 12.0918 22.5748L13.4918 21.1748C13.7834 20.8832 14.2501 20.8498 14.5751 21.0998L16.0001 22.1665C16.5501 22.5748 17.3334 22.1832 17.3334 21.4998V7.33317C17.3334 6.4165 18.0834 5.6665 19.0001 5.6665H9.83341H9.00008C6.50008 5.6665 5.66675 7.15817 5.66675 8.99984V9.83317Z" stroke="#C5C5C5" stroke-width="1.5" stroke-miterlimit="10" stroke-linecap="round" stroke-linejoin="round"/>
<path d="M9 11.5H14" stroke="#C5C5C5" stroke-width="1.5" stroke-linecap="round" stroke-linejoin="round"/>
<path d="M9.625 14.8335H13.375" stroke="#C5C5C5" stroke-width="1.5" stroke-linecap="round" stroke-linejoin="round"/>
</svg>
