<svg width="60" height="30" viewBox="0 0 60 30" fill="none" xmlns="http://www.w3.org/2000/svg">
<path d="M59.229 14.5321C59.229 18.1871 56.1697 21.6668 50.8296 24.2684C45.5299 26.8503 38.1663 28.4641 30.0001 28.4641C21.8339 28.4641 14.4703 26.8503 9.17062 24.2684C3.83046 21.6668 0.771143 18.1871 0.771143 14.5321C0.771143 10.8771 3.83046 7.39735 9.17062 4.79573C14.4703 2.21383 21.8339 0.6 30.0001 0.6C38.1663 0.6 45.5299 2.21383 50.8296 4.79573C56.1697 7.39735 59.229 10.8771 59.229 14.5321Z" fill="#FFF505" stroke="black" stroke-width="1.2"/>
<path d="M34.0664 10.8238C34.0664 10.7264 34.0606 10.5874 34.049 10.4068C34.0374 10.2261 34.0207 10.0267 33.999 9.8087C33.9762 9.59104 33.9517 9.36365 33.9258 9.12652C33.8998 8.88939 33.8715 8.66589 33.8409 8.45602L32.1552 8.73812C32.2374 9.41446 32.2955 9.9331 32.3296 10.2941C32.3633 10.6544 32.3802 10.9067 32.3802 11.0492C32.3792 11.0971 32.3656 11.1439 32.3406 11.1847C32.3014 11.2405 32.2469 11.2835 32.1837 11.3086C32.0795 11.3538 31.9702 11.386 31.8582 11.4043C31.6784 11.434 31.4963 11.4473 31.3141 11.4441H31.0333C30.6664 11.4441 30.4065 11.3783 30.2539 11.2466C30.0998 11.1152 30.0213 10.8729 30.0213 10.5195V9.30174H28.5118C28.5118 9.78261 28.5005 10.164 28.4781 10.4459C28.4667 10.6634 28.4308 10.879 28.3711 11.0884C28.3223 11.2344 28.2549 11.3308 28.1694 11.3757C28.0659 11.4246 27.9523 11.4478 27.8381 11.4435C27.6974 11.4436 27.5575 11.4225 27.423 11.381C27.2694 11.327 27.1335 11.2316 27.0301 11.1053C27.0377 11.0072 27.0435 10.891 27.047 10.7549C27.0504 10.6188 27.0528 10.4804 27.0528 10.3379V9.52602H25.538C25.5414 9.84046 25.5264 10.1548 25.4932 10.4675C25.4736 10.6684 25.4244 10.8652 25.3473 11.0516C25.2965 11.1785 25.2059 11.2853 25.0892 11.3559C24.9671 11.416 24.8322 11.445 24.6963 11.4406C24.5479 11.4395 24.4004 11.4167 24.2586 11.3728C24.1086 11.3276 23.9852 11.2186 23.8883 11.0457C23.8959 10.9482 23.9011 10.8355 23.9052 10.7076C23.9092 10.5797 23.911 10.4465 23.911 10.3069V9.52718H22.3956C22.3996 9.8511 22.3829 10.1749 22.3456 10.4967C22.3119 10.7451 22.2464 10.9387 22.1491 11.0773C22.054 11.2147 21.9156 11.316 21.7562 11.3646C21.5444 11.4239 21.3249 11.4507 21.1052 11.4441H20.8785C20.7237 11.446 20.5693 11.4289 20.4187 11.3932C20.2884 11.3618 20.1673 11.3 20.0653 11.2128C19.9564 11.1161 19.876 10.9912 19.8327 10.8518C19.7751 10.6601 19.7486 10.4603 19.7543 10.2602V5.3541L18.0151 5.52347L18.1831 13.6419C18.1751 13.774 18.1193 13.8987 18.0261 13.9923C17.8973 14.1299 17.7429 14.2408 17.5716 14.3188C17.3371 14.4286 17.0905 14.51 16.8369 14.5612C16.5044 14.6289 16.1658 14.661 15.8266 14.657C15.5526 14.6627 15.279 14.6324 15.0128 14.567C14.8191 14.5195 14.6362 14.4352 14.474 14.3188C14.3434 14.2237 14.2407 14.0953 14.1764 13.9467C14.1151 13.7965 14.0847 13.6354 14.0868 13.4731C14.0868 13.3757 14.0905 13.2576 14.0979 13.1186C14.1089 12.9522 14.1283 12.7865 14.156 12.6221C14.1855 12.4305 14.2265 12.2051 14.2792 11.9458C14.3319 11.6864 14.4003 11.3876 14.4844 11.0492L13.1382 10.6538C12.8313 11.4715 12.6331 12.1424 12.5435 12.6665C12.454 13.1906 12.4091 13.5905 12.4087 13.8661C12.4087 14.8283 12.6856 15.5669 13.2393 16.0821C13.7931 16.5972 14.6197 16.8546 15.7191 16.8542C16.2536 16.8583 16.7855 16.7783 17.2955 16.6171C17.7594 16.4728 18.1945 16.2476 18.5807 15.9518C18.9418 15.6727 19.2368 15.3167 19.4445 14.9093C19.6582 14.4809 19.7661 14.0071 19.7589 13.528V13.2465C19.8842 13.3877 20.0447 13.4928 20.2239 13.5508C20.436 13.6154 20.6569 13.6464 20.8785 13.6425H21.1028C21.5818 13.6425 21.9709 13.5729 22.27 13.4339C22.5705 13.2939 22.8267 13.0735 23.0106 12.7967C23.173 13.0433 23.3853 13.2527 23.6337 13.4112C23.8767 13.5669 24.2113 13.6448 24.6376 13.6448C24.9213 13.6447 25.2029 13.5963 25.4705 13.5017C25.7395 13.4075 25.9863 13.1914 26.2111 12.8534C26.3035 12.9909 26.4171 13.1127 26.5476 13.2143C26.6736 13.3105 26.8101 13.3919 26.9545 13.4567C27.0913 13.5188 27.2344 13.566 27.3812 13.5975C27.5139 13.6266 27.6493 13.6417 27.7852 13.6425C28.0959 13.6499 28.4015 13.5615 28.6606 13.389C28.8927 13.2337 29.0905 13.0321 29.2419 12.7967C29.3306 12.9663 29.4528 13.116 29.6011 13.2365C29.7381 13.3464 29.8915 13.434 30.0556 13.4959C30.2147 13.555 30.3805 13.5943 30.5491 13.6127C30.7113 13.631 30.8743 13.6403 31.0374 13.6407H31.2618C31.6259 13.6433 31.9886 13.5939 32.3389 13.4941C32.6672 13.401 32.9716 13.2376 33.2312 13.0152C33.5013 12.7761 33.711 12.4758 33.8427 12.1391C33.9918 11.7809 34.0664 11.3424 34.0664 10.8238Z" fill="black"/>
<path d="M32.8872 7.66641L33.8975 6.6519V6.48252L32.8872 5.46802H32.7192L31.709 6.48252V6.6519L32.7192 7.66641H32.8872Z" fill="black"/>
<path d="M36.6464 13.5864V5.35532L34.9072 5.52469L35.0758 13.6992L36.6464 13.5864Z" fill="black"/>
<path d="M43.5483 14.4771L42.5944 15.4356L41.6405 14.4771H41.4719L40.5181 15.4356V15.6044L41.4719 16.5628H41.6405L42.5944 15.6044L43.5483 16.5628H43.7162L44.6701 15.6044V15.4356L43.7162 14.4771H43.5483Z" fill="black"/>
<path d="M41.0787 13.6425H41.3037C41.6678 13.645 42.0304 13.5957 42.3808 13.4959C42.709 13.4026 43.0134 13.2393 43.273 13.0169C43.543 12.7776 43.7526 12.4774 43.8845 12.1409C44.0341 11.7799 44.1089 11.3401 44.1089 10.8215C44.1089 10.7241 44.1033 10.5851 44.0921 10.4045C44.0808 10.2238 44.064 10.0244 44.0415 9.80638C44.0186 9.58872 43.9944 9.36133 43.9688 9.1242C43.9432 8.88707 43.9151 8.66358 43.8845 8.4537L42.1988 8.7358C42.2814 9.41214 42.3395 9.93079 42.3732 10.2917C42.4069 10.6521 42.4238 10.9044 42.4238 11.0469C42.4228 11.0947 42.4093 11.1414 42.3848 11.1824C42.3453 11.2381 42.2906 11.2811 42.2273 11.3062C42.1233 11.3514 42.0142 11.3836 41.9024 11.402C41.7224 11.4316 41.5401 11.4449 41.3577 11.4417H41.0776C40.87 11.4468 40.6626 11.4258 40.4602 11.3792C40.2988 11.3352 40.1578 11.2356 40.0621 11.0977C39.9319 10.905 39.835 10.6915 39.7755 10.4664C39.6937 10.1919 39.604 9.82196 39.5064 9.35666L37.8207 9.80755C37.9927 10.7175 38.12 11.4711 38.2026 12.0684C38.2851 12.6657 38.3262 13.0773 38.3258 13.3031C38.3052 13.4303 38.2574 13.5515 38.1857 13.6582C38.0769 13.8106 37.9385 13.9391 37.7788 14.0361C37.5383 14.1884 37.2825 14.3149 37.0156 14.4134C36.6177 14.5611 36.2098 14.6798 35.7949 14.7685L36.1879 16.6293C37.3248 16.599 38.2208 16.3001 38.8757 15.7328C39.5306 15.1655 39.8987 14.333 39.9801 13.2354C40.1052 13.3794 40.2655 13.4883 40.4451 13.5514C40.6464 13.6152 40.8567 13.6456 41.0677 13.6413L41.0787 13.6425Z" fill="black"/>
<path d="M45.1187 13.6992L46.6899 13.5864V5.35532L44.9507 5.52469L45.1187 13.6992Z" fill="black"/>
<path d="M23.6681 20.1676L22.2707 18.2607H21.05V23.1235H22.2632V20.3965L23.2339 21.7118H23.9256L24.808 20.3965V23.1235H26.1316V18.2607H24.9184L23.6681 20.1676Z" fill="black"/>
<path d="M26.8081 19.3622H28.3967V23.1235H29.743V19.3622H31.324V18.2607H26.8081V19.3622Z" fill="black"/>
<path d="M35.3838 20.9432L33.2069 18.2607H32.0007V23.1235H33.2144V20.3446L35.4866 23.1235H36.5975V18.2607H35.3838V20.9432Z" fill="black"/>
</svg>
