<svg width="56" height="56" viewBox="0 0 56 56" fill="none" xmlns="http://www.w3.org/2000/svg">
<rect width="56" height="56" rx="28" fill="#0B961E" fill-opacity="0.04"/>
<path d="M28 19.4133H41.3333" stroke="#65B554" stroke-width="1.5" stroke-miterlimit="10" stroke-linecap="round" stroke-linejoin="round"/>
<path d="M28 19.4133H41.3333" stroke="black" stroke-opacity="0.15" stroke-width="1.5" stroke-miterlimit="10" stroke-linecap="round" stroke-linejoin="round"/>
<path d="M30.96 14.6667H38.3733C40.7467 14.6667 41.3333 15.2534 41.3333 17.6V23.08C41.3333 25.4267 40.7467 26.0134 38.3733 26.0134H30.96C28.5867 26.0134 28 25.4267 28 23.08V17.6C28 15.2534 28.5867 14.6667 30.96 14.6667Z" stroke="#65B554" stroke-width="1.5" stroke-linecap="round" stroke-linejoin="round"/>
<path d="M30.96 14.6667H38.3733C40.7467 14.6667 41.3333 15.2534 41.3333 17.6V23.08C41.3333 25.4267 40.7467 26.0134 38.3733 26.0134H30.96C28.5867 26.0134 28 25.4267 28 23.08V17.6C28 15.2534 28.5867 14.6667 30.96 14.6667Z" stroke="black" stroke-opacity="0.15" stroke-width="1.5" stroke-linecap="round" stroke-linejoin="round"/>
<path d="M14.6667 34.7466H28" stroke="#65B554" stroke-width="1.5" stroke-miterlimit="10" stroke-linecap="round" stroke-linejoin="round"/>
<path d="M14.6667 34.7466H28" stroke="black" stroke-opacity="0.15" stroke-width="1.5" stroke-miterlimit="10" stroke-linecap="round" stroke-linejoin="round"/>
<path d="M17.6267 30H25.04C27.4133 30 28 30.5867 28 32.9333V38.4133C28 40.76 27.4133 41.3467 25.04 41.3467H17.6267C15.2533 41.3467 14.6667 40.76 14.6667 38.4133V32.9333C14.6667 30.5867 15.2533 30 17.6267 30Z" stroke="#65B554" stroke-width="1.5" stroke-linecap="round" stroke-linejoin="round"/>
<path d="M17.6267 30H25.04C27.4133 30 28 30.5867 28 32.9333V38.4133C28 40.76 27.4133 41.3467 25.04 41.3467H17.6267C15.2533 41.3467 14.6667 40.76 14.6667 38.4133V32.9333C14.6667 30.5867 15.2533 30 17.6267 30Z" stroke="black" stroke-opacity="0.15" stroke-width="1.5" stroke-linecap="round" stroke-linejoin="round"/>
<path d="M41.3333 32C41.3333 37.16 37.16 41.3333 32 41.3333L33.4 39" stroke="#65B554" stroke-width="1.5" stroke-linecap="round" stroke-linejoin="round"/>
<path d="M41.3333 32C41.3333 37.16 37.16 41.3333 32 41.3333L33.4 39" stroke="black" stroke-opacity="0.15" stroke-width="1.5" stroke-linecap="round" stroke-linejoin="round"/>
<path d="M14.6667 24C14.6667 18.84 18.84 14.6667 24 14.6667L22.6 17" stroke="#65B554" stroke-width="1.5" stroke-linecap="round" stroke-linejoin="round"/>
<path d="M14.6667 24C14.6667 18.84 18.84 14.6667 24 14.6667L22.6 17" stroke="black" stroke-opacity="0.15" stroke-width="1.5" stroke-linecap="round" stroke-linejoin="round"/>
</svg>
