<svg width="56" height="56" viewBox="0 0 56 56" fill="none" xmlns="http://www.w3.org/2000/svg">
<rect width="56" height="56" rx="28" fill="#0B961E" fill-opacity="0.04"/>
<path d="M25.9867 14.9733L19.3333 17.48C17.8 18.0533 16.5467 19.8667 16.5467 21.4933V31.4C16.5467 32.9733 17.5867 35.04 18.8533 35.9867L24.5867 40.2667C26.4667 41.68 29.56 41.68 31.44 40.2667L37.1733 35.9867C38.44 35.04 39.48 32.9733 39.48 31.4V21.4933C39.48 19.8533 38.2267 18.04 36.6933 17.4667L30.04 14.9733C28.9067 14.56 27.0933 14.56 25.9867 14.9733Z" stroke="#65B554" stroke-width="1.5" stroke-linecap="round" stroke-linejoin="round"/>
<path d="M25.9867 14.9733L19.3333 17.48C17.8 18.0533 16.5467 19.8667 16.5467 21.4933V31.4C16.5467 32.9733 17.5867 35.04 18.8533 35.9867L24.5867 40.2667C26.4667 41.68 29.56 41.68 31.44 40.2667L37.1733 35.9867C38.44 35.04 39.48 32.9733 39.48 31.4V21.4933C39.48 19.8533 38.2267 18.04 36.6933 17.4667L30.04 14.9733C28.9067 14.56 27.0933 14.56 25.9867 14.9733Z" stroke="black" stroke-opacity="0.15" stroke-width="1.5" stroke-linecap="round" stroke-linejoin="round"/>
<path d="M24.0667 27.8267L26.2133 29.9733L31.9467 24.24" stroke="#65B554" stroke-width="1.5" stroke-linecap="round" stroke-linejoin="round"/>
<path d="M24.0667 27.8267L26.2133 29.9733L31.9467 24.24" stroke="black" stroke-opacity="0.15" stroke-width="1.5" stroke-linecap="round" stroke-linejoin="round"/>
</svg>
