<svg width="56" height="56" viewBox="0 0 56 56" fill="none" xmlns="http://www.w3.org/2000/svg">
<rect width="56" height="56" rx="28" fill="#0B961E" fill-opacity="0.04"/>
<path d="M38.0533 20.72L33.96 16.6267C32.7067 15.3734 31.0133 14.6667 29.24 14.6667H22.6667C18.6667 14.6667 16 17.3334 16 21.3334V34.6667C16 38.6667 18.6667 41.3334 22.6667 41.3334H33.3333C37.3333 41.3334 40 38.6667 40 34.6667V25.4267C40 23.6534 39.2933 21.96 38.0533 20.72Z" stroke="#65B554" stroke-width="1.5" stroke-linecap="round" stroke-linejoin="round"/>
<path d="M38.0533 20.72L33.96 16.6267C32.7067 15.3734 31.0133 14.6667 29.24 14.6667H22.6667C18.6667 14.6667 16 17.3334 16 21.3334V34.6667C16 38.6667 18.6667 41.3334 22.6667 41.3334H33.3333C37.3333 41.3334 40 38.6667 40 34.6667V25.4267C40 23.6534 39.2933 21.96 38.0533 20.72Z" stroke="black" stroke-opacity="0.15" stroke-width="1.5" stroke-linecap="round" stroke-linejoin="round"/>
<path d="M23.6003 28.8554C26.2219 26.826 29.6453 26.826 32.2669 28.8554" stroke="#65B554" stroke-width="1.5" stroke-linecap="round" stroke-linejoin="round"/>
<path d="M23.6003 28.8554C26.2219 26.826 29.6453 26.826 32.2669 28.8554" stroke="black" stroke-opacity="0.15" stroke-width="1.5" stroke-linecap="round" stroke-linejoin="round"/>
<path d="M24.7558 31.0871C26.6841 29.5993 29.1902 29.5993 31.1186 31.0871" stroke="#65B554" stroke-width="1.5" stroke-linecap="round" stroke-linejoin="round"/>
<path d="M24.7558 31.0871C26.6841 29.5993 29.1902 29.5993 31.1186 31.0871" stroke="black" stroke-opacity="0.15" stroke-width="1.5" stroke-linecap="round" stroke-linejoin="round"/>
<path d="M26.3441 33.319C27.3047 32.5751 28.5613 32.5751 29.5219 33.319" stroke="#65B554" stroke-width="1.5" stroke-linecap="round" stroke-linejoin="round"/>
<path d="M26.3441 33.319C27.3047 32.5751 28.5613 32.5751 29.5219 33.319" stroke="black" stroke-opacity="0.15" stroke-width="1.5" stroke-linecap="round" stroke-linejoin="round"/>
<path d="M21.3333 30.7V32C21.3333 35.3333 22.6667 36.6666 26 36.6666H30C33.3333 36.6666 34.6667 35.3333 34.6667 32V28C34.6667 24.6666 33.3333 23.3333 30 23.3333H26C22.6667 23.3333 21.3333 24.6666 21.3333 28" stroke="#65B554" stroke-width="1.5" stroke-linecap="round" stroke-linejoin="round"/>
<path d="M21.3333 30.7V32C21.3333 35.3333 22.6667 36.6666 26 36.6666H30C33.3333 36.6666 34.6667 35.3333 34.6667 32V28C34.6667 24.6666 33.3333 23.3333 30 23.3333H26C22.6667 23.3333 21.3333 24.6666 21.3333 28" stroke="black" stroke-opacity="0.15" stroke-width="1.5" stroke-linecap="round" stroke-linejoin="round"/>
</svg>
