<svg width="16" height="25" viewBox="0 0 16 25" fill="none" xmlns="http://www.w3.org/2000/svg">
<path d="M2.58664 0.643764C2.58664 0.667764 2.54931 0.68643 2.48798 0.697097C2.13331 0.755764 1.61064 1.0811 1.33598 1.41176C1.18131 1.59843 1.16798 1.62243 1.03998 1.88376C0.853309 2.26243 0.853309 2.23043 0.853309 4.22243C0.853309 5.3211 0.842642 6.0411 0.826642 6.0811C0.813309 6.11843 0.783976 6.15043 0.765309 6.15043C0.743976 6.15043 0.685309 6.1931 0.631976 6.24643C0.503976 6.37443 0.501309 6.41176 0.511976 7.5771C0.519976 8.65443 0.519976 8.6491 0.722642 8.7611C0.837309 8.8251 0.853309 8.85976 0.853309 9.0171C0.853309 9.17976 0.818642 9.2491 0.714642 9.3051C0.663976 9.33176 0.599976 9.3931 0.570642 9.43843C0.522642 9.51843 0.519976 9.59043 0.511976 10.4838C0.501309 11.6491 0.503976 11.6864 0.631976 11.8144C0.685309 11.8678 0.743976 11.9104 0.765309 11.9104C0.783976 11.9104 0.813309 11.9424 0.826642 11.9798C0.842642 12.0224 0.853309 14.0011 0.853309 17.4384C0.853309 22.6171 0.855976 22.8384 0.903976 23.0171C0.946642 23.1798 1.04531 23.4064 1.15998 23.6118C1.17864 23.6464 1.25864 23.7531 1.33598 23.8491C1.61864 24.1878 2.07464 24.4704 2.51464 24.5744C2.69598 24.6171 13.2506 24.6171 13.432 24.5744C13.7306 24.5024 13.9973 24.3744 14.2666 24.1718C14.4506 24.0331 14.704 23.7611 14.7866 23.6118C14.8746 23.4571 14.96 23.2704 15.0186 23.1104L15.08 22.9371L15.0933 15.1024C15.1066 7.3851 15.1066 7.2651 15.1573 7.22776C15.1866 7.20643 15.224 7.19043 15.2426 7.19043C15.2586 7.19043 15.3093 7.1451 15.3493 7.0891L15.4266 6.99043V5.91043C15.4266 4.69443 15.4373 4.75576 15.2213 4.61176L15.1066 4.53443L15.0933 3.43043C15.08 2.35843 15.0773 2.31843 15.016 2.15043C14.96 1.99043 14.8746 1.80643 14.7866 1.6491C14.728 1.53976 14.4826 1.2571 14.3626 1.15843C14.1013 0.939764 13.7093 0.737097 13.4613 0.69443C13.4 0.683764 13.36 0.66243 13.36 0.641097C13.36 0.609097 12.552 0.603764 7.97331 0.603764C3.27731 0.603764 2.58664 0.609097 2.58664 0.643764ZM4.06398 1.46243C4.06931 1.4811 4.08798 1.57976 4.10664 1.68376C4.15998 1.97176 4.27198 2.18243 4.49331 2.4091C4.72264 2.64376 4.96531 2.76643 5.28798 2.81443C5.43198 2.83576 6.24531 2.84376 7.97331 2.84376C9.70131 2.84376 10.5146 2.83576 10.6586 2.81443C10.9813 2.76643 11.224 2.64376 11.4533 2.4091C11.6746 2.18243 11.7866 1.97176 11.84 1.68376C11.8586 1.57976 11.8773 1.4811 11.8826 1.46243C11.8906 1.4331 12.0346 1.42776 12.6053 1.43576L13.32 1.44376L13.552 1.55843C13.944 1.75576 14.2293 2.12376 14.296 2.5211C14.328 2.7291 14.328 22.5798 14.2933 22.7584C14.208 23.2144 13.8453 23.6144 13.3706 23.7771C13.2213 23.8304 13.128 23.8304 7.97331 23.8304C2.81864 23.8304 2.72531 23.8304 2.57598 23.7771C2.10131 23.6144 1.73864 23.2144 1.65331 22.7584C1.61598 22.5744 1.61598 2.68643 1.65331 2.50243C1.71464 2.16643 1.98664 1.7851 2.27998 1.6171C2.58131 1.44376 2.63998 1.43576 3.38131 1.4331C3.89864 1.43043 4.05598 1.43843 4.06398 1.46243ZM11.08 1.4571C11.0906 1.4731 11.0746 1.54776 11.048 1.62243C10.9893 1.7931 10.8186 1.96643 10.672 2.0091C10.5866 2.03576 9.96798 2.04376 7.97331 2.04376C5.97864 2.04376 5.35998 2.03576 5.27464 2.0091C5.12798 1.96643 4.95731 1.7931 4.89864 1.62243C4.87198 1.54776 4.85598 1.4731 4.86664 1.4571C4.89064 1.41976 11.056 1.41976 11.08 1.4571Z" fill="#65B554"/>
<path d="M4.59996 22.2944C4.55462 22.3131 4.48529 22.3691 4.44529 22.4144C4.38396 22.4864 4.37329 22.5264 4.37329 22.6598C4.37329 22.8091 4.37862 22.8224 4.48262 22.9238L4.59196 23.0304H7.97329H11.3546L11.464 22.9211C11.568 22.8171 11.5733 22.8011 11.5733 22.6571C11.5733 22.5264 11.5626 22.4864 11.5013 22.4144C11.36 22.2491 11.5653 22.2571 7.96796 22.2571C5.29329 22.2598 4.66396 22.2651 4.59996 22.2944Z" fill="#65B554"/>
</svg>
