<svg width="56" height="56" viewBox="0 0 56 56" fill="none" xmlns="http://www.w3.org/2000/svg">
<rect width="56" height="56" rx="28" fill="#0B961E" fill-opacity="0.04"/>
<path d="M38.0533 20.72L33.96 16.6267C32.7067 15.3734 31.0133 14.6667 29.24 14.6667H22.6667C18.6667 14.6667 16 17.3334 16 21.3334V34.6667C16 38.6667 18.6667 41.3334 22.6667 41.3334H33.3333C37.3333 41.3334 40 38.6667 40 34.6667V25.4267C40 23.6534 39.2933 21.96 38.0533 20.72Z" stroke="#65B554" stroke-width="1.5" stroke-linecap="round" stroke-linejoin="round"/>
<path d="M38.0533 20.72L33.96 16.6267C32.7067 15.3734 31.0133 14.6667 29.24 14.6667H22.6667C18.6667 14.6667 16 17.3334 16 21.3334V34.6667C16 38.6667 18.6667 41.3334 22.6667 41.3334H33.3333C37.3333 41.3334 40 38.6667 40 34.6667V25.4267C40 23.6534 39.2933 21.96 38.0533 20.72Z" stroke="black" stroke-opacity="0.15" stroke-width="1.5" stroke-linecap="round" stroke-linejoin="round"/>
<path d="M25.3333 36.6667H30.6667C32.8667 36.6667 34.6667 34.8667 34.6667 32.6667V28.6667C34.6667 26.4667 32.8667 24.6667 30.6667 24.6667H25.3333C23.1333 24.6667 21.3333 26.4667 21.3333 28.6667V32.6667C21.3333 34.8667 23.1333 36.6667 25.3333 36.6667Z" stroke="#65B554" stroke-width="1.5" stroke-linecap="round" stroke-linejoin="round"/>
<path d="M25.3333 36.6667H30.6667C32.8667 36.6667 34.6667 34.8667 34.6667 32.6667V28.6667C34.6667 26.4667 32.8667 24.6667 30.6667 24.6667H25.3333C23.1333 24.6667 21.3333 26.4667 21.3333 28.6667V32.6667C21.3333 34.8667 23.1333 36.6667 25.3333 36.6667Z" stroke="black" stroke-opacity="0.15" stroke-width="1.5" stroke-linecap="round" stroke-linejoin="round"/>
<path d="M28 24.6667V36.6667" stroke="#65B554" stroke-width="1.5" stroke-linecap="round" stroke-linejoin="round"/>
<path d="M28 24.6667V36.6667" stroke="black" stroke-opacity="0.15" stroke-width="1.5" stroke-linecap="round" stroke-linejoin="round"/>
<path d="M22 30.6667H34" stroke="#65B554" stroke-width="1.5" stroke-linecap="round" stroke-linejoin="round"/>
<path d="M22 30.6667H34" stroke="black" stroke-opacity="0.15" stroke-width="1.5" stroke-linecap="round" stroke-linejoin="round"/>
</svg>
