<svg width="25" height="25" viewBox="0 0 25 25" fill="none" xmlns="http://www.w3.org/2000/svg">
<rect x="0.998047" y="0.75" width="24.002" height="24" rx="12" fill="#F7F919"/>
<path d="M9.95035 4.78513C9.94237 4.80589 9.77628 5.19237 9.58144 5.64432C9.38661 6.09627 9.22371 6.47636 9.21892 6.48594C9.21254 6.50191 9.9775 6.5067 13.0118 6.5067H16.8127L16.8302 6.58176C16.9835 7.23973 19.2305 17.7464 19.2289 17.8023C19.2289 17.9796 19.1124 18.16 18.9574 18.2271L18.8776 18.2606L15.6948 18.2574L12.5119 18.2527L12.4161 18.2063C12.2628 18.1297 12.1398 17.9891 12.0839 17.8215C12.076 17.7959 12.0632 17.5931 12.0584 17.3743L12.0488 16.9735L11.9977 16.8697C11.9354 16.7419 11.8204 16.6301 11.6927 16.571L11.6017 16.5279L9.10234 16.5199C6.28523 16.5103 6.53436 16.5231 6.49763 16.389C6.47527 16.3043 6.49124 16.1286 6.53117 16.0089C6.54714 15.961 7.28336 14.3256 8.1665 12.3757L9.76989 8.83034L12.5822 8.82555L15.3945 8.82236V7.9999V7.17744H12.1622C9.59262 7.17744 8.92667 7.18223 8.91549 7.19661C8.9091 7.20779 8.02437 9.26153 6.94958 11.7592L4.99805 16.3027L5.00124 18.283L5.00603 20.2649L5.05234 20.3607C5.13539 20.53 5.29509 20.6705 5.46916 20.7264C5.54262 20.7504 6.17025 20.752 13.023 20.7488L20.497 20.744L20.6024 20.6929C20.7285 20.6306 20.8722 20.4853 20.9281 20.3655C20.9856 20.2393 21 20.102 21 19.6341V19.2109L19.4557 11.9796L17.9114 4.75H13.9381H9.96472L9.95035 4.78513Z" fill="black"/>
<path d="M13.0629 12.8087C12.8362 12.8694 12.6509 13.0579 12.5918 13.2878C12.5711 13.3741 12.5679 13.596 12.5711 15.1403L12.5759 16.8954L12.6126 16.9881C12.6861 17.1685 12.8266 17.3043 13.0198 17.3825L13.1188 17.4225L15.2508 17.4273C16.6881 17.4304 17.418 17.4257 17.4914 17.4145C17.8316 17.3618 18.0919 17.052 18.0935 16.7022C18.0935 16.6319 17.9913 16.1576 17.7246 14.9934C17.311 13.1824 17.3237 13.2271 17.1465 13.0483C17.0315 12.9349 16.8686 12.8439 16.7185 12.8071C16.5668 12.772 13.1955 12.7736 13.0629 12.8087Z" fill="black"/>
</svg>
