<svg width="24" height="25" viewBox="0 0 24 25" fill="none" xmlns="http://www.w3.org/2000/svg">
<rect y="0.75" width="24" height="24" rx="12" fill="#2B9AFF"/>
<path d="M7.12063 18.5631C7.19397 18.6901 7.29373 18.8096 7.41569 18.9008C7.68783 19.1055 8.03299 19.1833 8.36923 19.1124L9.278 18.9264C9.69107 18.8419 10.0641 18.488 10.1772 18.0839L10.7369 16.0133C10.7442 15.986 10.7944 15.9263 10.8233 15.9096L12.2493 15.0863L12.632 18.3756C12.6852 18.8145 12.9092 19.1624 13.2448 19.3305C13.5805 19.4985 13.9971 19.4735 14.3724 19.2568L15.1172 18.8268C15.683 18.5001 16.0559 17.746 15.9613 17.1155L15.5089 13.212L17.1486 12.2654C17.8472 11.862 18.3664 10.9079 18.3297 10.0977C18.3065 9.71085 18.1065 9.36444 17.7864 9.15666C17.0997 8.71401 16.0196 8.68326 15.321 9.0866L13.6814 10.0333L10.517 7.67248C10.001 7.2853 9.18541 7.23271 8.61383 7.56271L7.86905 7.99271C7.488 8.21271 7.26046 8.55192 7.24148 8.93239C7.2225 9.31285 7.40851 9.67503 7.75618 9.94388L10.4136 11.9199L8.98751 12.7433C8.96441 12.7566 8.89335 12.7668 8.86603 12.7595L6.78389 12.2065C6.38319 12.0991 5.87863 12.2519 5.60466 12.564L4.98923 13.258C4.76299 13.5195 4.65783 13.8574 4.70813 14.1978C4.7551 14.5325 4.93998 14.8261 5.217 15.0125C5.25098 15.0314 5.28497 15.0503 5.32473 15.0658L7.23301 15.7577C7.30009 15.7806 7.34765 15.8763 7.33634 15.9367L6.9814 17.9352C6.97164 17.9717 6.97098 18.0105 6.9761 18.0461C6.97528 18.2313 7.03063 18.4072 7.12063 18.5631ZM13.0929 14.3606C13.0162 14.2278 12.9082 14.1208 12.7698 14.0544C12.5204 13.929 12.2285 13.9436 11.963 14.0969L10.3175 15.0469C10.0692 15.1902 9.8448 15.4815 9.77159 15.7547L9.2119 17.8253C9.19637 17.865 9.1231 17.9381 9.08179 17.9466L8.16725 18.1359C8.09951 18.1519 8.05309 18.1248 8.02821 18.1084C8.01243 18.0944 7.98422 18.0722 7.97577 18.0309L8.32029 16.1076C8.42206 15.5639 8.09206 14.9923 7.57029 14.8086L5.74154 14.1477C5.71243 14.1107 5.70154 14.0785 5.69731 14.0578C5.69553 14.0281 5.69195 13.9685 5.73969 13.9179L6.35512 13.2238C6.38887 13.189 6.48881 13.1621 6.52524 13.1718L8.59826 13.7224C8.85992 13.8023 9.23348 13.756 9.48751 13.6093L11.133 12.6593C11.3928 12.5093 11.5546 12.2696 11.5741 11.9966C11.5935 11.7237 11.4642 11.4596 11.2202 11.2771L8.35626 9.14325C8.27162 9.07664 8.23829 9.01891 8.23983 8.99492C8.24138 8.97093 8.28001 8.91784 8.37238 8.86451L9.11717 8.43451C9.33656 8.30784 9.72613 8.32926 9.92029 8.47889L13.1717 10.8972C13.4281 11.0879 13.8085 11.1069 14.0857 10.9469L15.8177 9.94685C16.1988 9.72685 16.8628 9.74374 17.236 9.99015C17.2858 10.023 17.3191 10.0807 17.326 10.146C17.3462 10.5809 17.0205 11.1769 16.6453 11.3936L14.9132 12.3936C14.6419 12.5502 14.4623 12.8925 14.4993 13.2099L14.9679 17.2349C15.0037 17.4836 14.8275 17.8317 14.6138 17.955L13.8691 18.385C13.7767 18.4383 13.7114 18.4453 13.6898 18.4346C13.6683 18.4239 13.635 18.3662 13.6196 18.2596L13.2069 14.7181C13.1931 14.5876 13.1529 14.4645 13.0929 14.3606Z" fill="white"/>
</svg>
