<svg width="56" height="56" viewBox="0 0 56 56" fill="none" xmlns="http://www.w3.org/2000/svg">
<rect width="56" height="56" rx="28" fill="#0B961E" fill-opacity="0.04"/>
<path d="M19.2771 12.0946C18.7686 12.2234 18.1903 12.5964 17.8344 13.01C17.5992 13.2881 17.2814 13.8577 16.6459 15.1529L15.7752 16.9161L15.0824 16.9703C14.6947 16.9974 14.2244 17.0788 14.0211 17.1466C13.0105 17.506 12.2669 18.4351 12.0699 19.5608C12.0318 19.7778 12 20.6593 12 21.5206C12 23.2769 12.0318 23.4193 12.4385 23.7109C12.6928 23.894 12.8898 23.9076 13.1758 23.7584C13.6079 23.5414 13.6143 23.4939 13.6524 21.446L13.6842 19.6082L13.8749 19.3166C13.9829 19.1607 14.1799 18.964 14.3198 18.8894L14.574 18.747L26.7956 18.7267L39.0109 18.7131V28.1187C39.0109 33.9439 38.9855 37.7075 38.9474 37.9923C38.8139 38.9484 38.261 39.7486 37.4411 40.1623L37.0089 40.3793H28.0477H19.0864L18.7178 40.2233C18.006 39.9114 17.4657 39.3146 17.1925 38.528C17.0717 38.1754 17.059 37.9923 17.059 36.3783L17.0526 34.6152L26.3952 34.5813C33.9519 34.5542 35.7633 34.527 35.884 34.4592C36.2526 34.2355 36.3797 33.659 36.1509 33.2589C35.8967 32.8249 36.5768 32.8521 26.3507 32.8317L17.0209 32.8182V27.4949C17.0209 22.592 17.0145 22.1512 16.9128 21.9885C16.6141 21.507 15.8197 21.5341 15.54 22.0291C15.4383 22.2122 15.432 22.8022 15.432 30.187C15.432 39.0841 15.4129 38.6297 15.8896 39.6605C16.0993 40.1148 16.2709 40.3589 16.6713 40.7862C17.4276 41.5999 18.2538 42.0136 19.3597 42.1424L19.7537 42.1899V42.7256C19.7537 43.3766 19.8618 43.6818 20.1478 43.8716C20.402 44.0344 20.6499 44.0412 20.9295 43.8988C21.2155 43.7564 21.3426 43.4444 21.3871 42.7527L21.4252 42.1763H28.0413H34.6574L34.6638 42.746C34.6765 43.4309 34.7972 43.7496 35.1023 43.8988C35.3819 44.0412 35.6298 44.0344 35.884 43.8716C36.17 43.6818 36.2781 43.3766 36.2781 42.7256V42.1899L36.6467 42.1492C37.2949 42.0678 37.6318 41.9661 38.2165 41.6677C39.3923 41.0642 40.2058 39.9724 40.4981 38.6026C40.5871 38.1618 40.5998 37.1378 40.5998 28.4036V18.6928L41.0447 18.7267C41.6167 18.7741 42.0171 19.0183 42.2332 19.4523C42.373 19.7439 42.3793 19.8049 42.3793 21.4392C42.3793 22.7412 42.3984 23.1752 42.4683 23.3583C42.6336 23.7652 43.2056 23.9415 43.625 23.7109C43.9873 23.5142 44 23.4125 44 21.3985C44 19.7574 43.9873 19.5201 43.8729 19.1539C43.5996 18.2588 42.856 17.445 42.0489 17.1602C41.8137 17.0788 41.3625 16.9974 40.9557 16.9703L40.263 16.9161L39.3923 15.1529C38.6232 13.5865 38.4771 13.3423 38.1148 12.949C37.6763 12.4743 37.225 12.2031 36.6721 12.0742C36.17 11.9657 19.7156 11.9793 19.2771 12.0946ZM36.6467 13.8916C36.7738 13.9594 36.9327 14.0815 36.9962 14.1561C37.0598 14.2307 37.4093 14.8817 37.7652 15.6005L38.4262 16.9161L33.2211 16.9364C30.3611 16.9432 25.6771 16.9432 22.8107 16.9364L17.6056 16.9161L18.222 15.6819C18.9529 14.2103 19.0292 14.095 19.3851 13.9052L19.6584 13.7628H28.035C36.1255 13.7628 36.4179 13.7695 36.6467 13.8916Z" fill="#65B554"/>
<path d="M19.2771 12.0946C18.7686 12.2234 18.1903 12.5964 17.8344 13.01C17.5992 13.2881 17.2814 13.8577 16.6459 15.1529L15.7752 16.9161L15.0824 16.9703C14.6947 16.9974 14.2244 17.0788 14.0211 17.1466C13.0105 17.506 12.2669 18.4351 12.0699 19.5608C12.0318 19.7778 12 20.6593 12 21.5206C12 23.2769 12.0318 23.4193 12.4385 23.7109C12.6928 23.894 12.8898 23.9076 13.1758 23.7584C13.6079 23.5414 13.6143 23.4939 13.6524 21.446L13.6842 19.6082L13.8749 19.3166C13.9829 19.1607 14.1799 18.964 14.3198 18.8894L14.574 18.747L26.7956 18.7267L39.0109 18.7131V28.1187C39.0109 33.9439 38.9855 37.7075 38.9474 37.9923C38.8139 38.9484 38.261 39.7486 37.4411 40.1623L37.0089 40.3793H28.0477H19.0864L18.7178 40.2233C18.006 39.9114 17.4657 39.3146 17.1925 38.528C17.0717 38.1754 17.059 37.9923 17.059 36.3783L17.0526 34.6152L26.3952 34.5813C33.9519 34.5542 35.7633 34.527 35.884 34.4592C36.2526 34.2355 36.3797 33.659 36.1509 33.2589C35.8967 32.8249 36.5768 32.8521 26.3507 32.8317L17.0209 32.8182V27.4949C17.0209 22.592 17.0145 22.1512 16.9128 21.9885C16.6141 21.507 15.8197 21.5341 15.54 22.0291C15.4383 22.2122 15.432 22.8022 15.432 30.187C15.432 39.0841 15.4129 38.6297 15.8896 39.6605C16.0993 40.1148 16.2709 40.3589 16.6713 40.7862C17.4276 41.5999 18.2538 42.0136 19.3597 42.1424L19.7537 42.1899V42.7256C19.7537 43.3766 19.8618 43.6818 20.1478 43.8716C20.402 44.0344 20.6499 44.0412 20.9295 43.8988C21.2155 43.7564 21.3426 43.4444 21.3871 42.7527L21.4252 42.1763H28.0413H34.6574L34.6638 42.746C34.6765 43.4309 34.7972 43.7496 35.1023 43.8988C35.3819 44.0412 35.6298 44.0344 35.884 43.8716C36.17 43.6818 36.2781 43.3766 36.2781 42.7256V42.1899L36.6467 42.1492C37.2949 42.0678 37.6318 41.9661 38.2165 41.6677C39.3923 41.0642 40.2058 39.9724 40.4981 38.6026C40.5871 38.1618 40.5998 37.1378 40.5998 28.4036V18.6928L41.0447 18.7267C41.6167 18.7741 42.0171 19.0183 42.2332 19.4523C42.373 19.7439 42.3793 19.8049 42.3793 21.4392C42.3793 22.7412 42.3984 23.1752 42.4683 23.3583C42.6336 23.7652 43.2056 23.9415 43.625 23.7109C43.9873 23.5142 44 23.4125 44 21.3985C44 19.7574 43.9873 19.5201 43.8729 19.1539C43.5996 18.2588 42.856 17.445 42.0489 17.1602C41.8137 17.0788 41.3625 16.9974 40.9557 16.9703L40.263 16.9161L39.3923 15.1529C38.6232 13.5865 38.4771 13.3423 38.1148 12.949C37.6763 12.4743 37.225 12.2031 36.6721 12.0742C36.17 11.9657 19.7156 11.9793 19.2771 12.0946ZM36.6467 13.8916C36.7738 13.9594 36.9327 14.0815 36.9962 14.1561C37.0598 14.2307 37.4093 14.8817 37.7652 15.6005L38.4262 16.9161L33.2211 16.9364C30.3611 16.9432 25.6771 16.9432 22.8107 16.9364L17.6056 16.9161L18.222 15.6819C18.9529 14.2103 19.0292 14.095 19.3851 13.9052L19.6584 13.7628H28.035C36.1255 13.7628 36.4179 13.7695 36.6467 13.8916Z" fill="black" fill-opacity="0.15"/>
<path d="M20.1795 36.3716C19.6901 36.5615 19.4359 36.9548 19.4359 37.5108C19.4359 38.0805 19.7283 38.5009 20.2431 38.6501C20.7451 38.8061 21.3044 38.5755 21.5587 38.1144C21.7493 37.7685 21.7303 37.1718 21.5205 36.8327C21.2472 36.3919 20.6435 36.1885 20.1795 36.3716Z" fill="#65B554"/>
<path d="M20.1795 36.3716C19.6901 36.5615 19.4359 36.9548 19.4359 37.5108C19.4359 38.0805 19.7283 38.5009 20.2431 38.6501C20.7451 38.8061 21.3044 38.5755 21.5587 38.1144C21.7493 37.7685 21.7303 37.1718 21.5205 36.8327C21.2472 36.3919 20.6435 36.1885 20.1795 36.3716Z" fill="black" fill-opacity="0.15"/>
<path d="M35.1404 36.358C34.6256 36.5139 34.3523 36.9005 34.346 37.4904C34.3396 38.1211 34.6955 38.5822 35.2675 38.6839C35.973 38.8128 36.5958 38.2771 36.5958 37.5447C36.5958 36.9479 36.2908 36.5004 35.7823 36.3444C35.509 36.263 35.4328 36.263 35.1404 36.358Z" fill="#65B554"/>
<path d="M35.1404 36.358C34.6256 36.5139 34.3523 36.9005 34.346 37.4904C34.3396 38.1211 34.6955 38.5822 35.2675 38.6839C35.973 38.8128 36.5958 38.2771 36.5958 37.5447C36.5958 36.9479 36.2908 36.5004 35.7823 36.3444C35.509 36.263 35.4328 36.263 35.1404 36.358Z" fill="black" fill-opacity="0.15"/>
<path d="M25.5055 36.6632C24.9843 36.8124 24.7682 37.5176 25.0796 38.033C25.283 38.3653 25.4165 38.3788 28.0286 38.3788C30.7551 38.3788 30.7742 38.3721 31.0157 37.8974C31.1555 37.6193 31.1619 37.4159 31.0284 37.1243C30.8187 36.6428 30.8695 36.6496 28.1112 36.6361C26.7511 36.6361 25.5754 36.6428 25.5055 36.6632Z" fill="#65B554"/>
<path d="M25.5055 36.6632C24.9843 36.8124 24.7682 37.5176 25.0796 38.033C25.283 38.3653 25.4165 38.3788 28.0286 38.3788C30.7551 38.3788 30.7742 38.3721 31.0157 37.8974C31.1555 37.6193 31.1619 37.4159 31.0284 37.1243C30.8187 36.6428 30.8695 36.6496 28.1112 36.6361C26.7511 36.6361 25.5754 36.6428 25.5055 36.6632Z" fill="black" fill-opacity="0.15"/>
</svg>
