<svg width="24" height="25" viewBox="0 0 24 25" fill="none" xmlns="http://www.w3.org/2000/svg">
<rect y="0.75" width="24" height="24" rx="12" fill="#65B554"/>
<path d="M8.04186 6.02588C7.70826 6.09151 7.33092 6.37315 7.16686 6.67667C6.99186 7.00752 7.00006 6.79151 7.00006 10.8001C7.00006 13.3458 7.00826 14.486 7.03014 14.5872C7.11217 14.9782 7.38287 15.32 7.75748 15.5032L7.97076 15.6071L8.90865 15.6153C9.42272 15.6208 9.84381 15.6317 9.84381 15.6427C9.84381 15.6536 9.49928 16.5231 9.07819 17.5759C8.65709 18.6286 8.31256 19.5282 8.31256 19.572C8.31529 19.7032 8.40553 19.8728 8.50944 19.9356C8.62428 20.0067 8.8485 20.0177 8.96881 19.9548C9.07819 19.8974 9.13561 19.8071 9.27233 19.4571L9.39264 19.1481L11.8235 19.1564L14.2571 19.1618L14.3883 19.4872C14.5715 19.9439 14.6454 20.0122 14.938 19.9903C15.0911 19.9794 15.1102 19.9685 15.2059 19.8646C15.4028 19.6403 15.4383 19.7634 14.5743 17.606C14.1532 16.5505 13.8087 15.6728 13.8087 15.6536C13.8087 15.629 14.0055 15.6208 14.6809 15.6208C15.6325 15.6208 15.7309 15.6071 16.0016 15.4485C16.3051 15.2708 16.5649 14.8853 16.6251 14.5243C16.6633 14.2837 16.6633 7.36026 16.6251 7.1169C16.5649 6.74502 16.3215 6.37588 16.0071 6.18721C15.6762 5.9876 15.9141 5.99854 11.8262 6.00127C9.811 6.00127 8.10748 6.01221 8.04186 6.02588ZM11.3751 8.18331V9.4958H9.62506H7.87233L7.88053 8.32549L7.88873 7.15245L7.96256 7.05674C8.10748 6.86534 8.03912 6.87081 9.79733 6.87081H11.3751V8.18331ZM15.5204 6.92276C15.5887 6.95557 15.6571 7.01299 15.6981 7.07862L15.7637 7.18526L15.7719 8.33916L15.7801 9.4958H14.0137H12.2501V8.18331V6.87081H13.8305C15.3098 6.87081 15.4165 6.87627 15.5204 6.92276ZM15.7637 12.4079C15.7637 14.3985 15.7637 14.4341 15.7063 14.5271C15.6762 14.579 15.6106 14.6501 15.5587 14.6856L15.4684 14.7458L11.7962 14.7403L8.12389 14.7321L8.03639 14.6501C7.86959 14.4915 7.87506 14.5817 7.87506 12.3806V10.3708L11.8208 10.3763L15.7637 10.3845V12.4079ZM13.0075 16.0446C13.1005 16.2689 13.177 16.463 13.177 16.4739C13.1797 16.4876 12.57 16.4958 11.8262 16.4958C11.0825 16.4958 10.4727 16.4849 10.4727 16.4739C10.4727 16.4384 10.7762 15.6919 10.8063 15.6536C10.8282 15.629 11.0579 15.6208 11.8372 15.6263L12.838 15.6345L13.0075 16.0446ZM13.713 17.811C13.8032 18.038 13.8825 18.2349 13.8852 18.2485C13.8907 18.2622 13.002 18.2731 11.829 18.2731C10.6915 18.2731 9.76178 18.2649 9.76178 18.2513C9.76178 18.2403 9.83561 18.0435 9.92858 17.8138L10.0954 17.3981H11.8235H13.5489L13.713 17.811Z" fill="white"/>
<path d="M9.87114 11.2647C9.60044 11.3058 9.25864 11.4972 9.07817 11.7077C8.35083 12.5444 8.95239 13.8733 10.0598 13.8706C10.4372 13.8706 10.7379 13.7476 10.995 13.4905C11.2465 13.2362 11.375 12.9245 11.375 12.5554C11.375 12.1808 11.2411 11.8772 10.954 11.6065C10.6696 11.3386 10.2485 11.2046 9.87114 11.2647ZM10.254 12.1808C10.4125 12.2628 10.5 12.3913 10.5 12.5499C10.5 12.8042 10.3497 12.9683 10.1036 12.9901C9.6934 13.0229 9.47465 12.5472 9.76997 12.2573C9.91489 12.1151 10.0735 12.0905 10.254 12.1808Z" fill="white"/>
<path d="M13.2973 11.2868C12.6438 11.4289 12.1872 12.077 12.2774 12.7305C12.3458 13.1981 12.6028 13.5481 13.0321 13.7532C13.2044 13.8352 13.2755 13.8516 13.4751 13.8653C13.877 13.8871 14.1805 13.786 14.454 13.5344C15.2442 12.8125 14.8888 11.5082 13.8442 11.2868C13.62 11.2375 13.5188 11.2375 13.2973 11.2868ZM13.6966 12.1481C13.8798 12.2 14.0055 12.375 14.0055 12.5746C14.0055 13.0094 13.4204 13.1625 13.1989 12.7852C13.0677 12.561 13.1989 12.2219 13.4423 12.1481C13.5516 12.118 13.5899 12.1153 13.6966 12.1481Z" fill="white"/>
</svg>
