<svg width="74" height="75" viewBox="0 0 74 75" fill="none" xmlns="http://www.w3.org/2000/svg">
<rect x="-6.10352e-05" width="74.0001" height="74.0137" rx="37.0001" fill="#E9EEEF" fill-opacity="0.6"/>
<rect x="-6.10352e-05" width="74.0001" height="74.0137" rx="37.0001" fill="white" fill-opacity="0.45"/>
<path d="M50.2813 16.2583C50.2032 16.2876 42.7129 19.0806 33.6309 22.4692C23.3379 26.3071 16.9122 28.6509 16.5704 28.7095C14.8809 28.9438 13.4063 29.9692 12.6348 31.4341C12.0782 32.4985 12.0001 33.0063 12.0001 35.7993C12.0001 39.061 11.9512 38.9829 13.8555 39.0708C15.4766 39.1489 16.4532 39.5981 17.3321 40.6724C17.9571 41.4438 18.1915 42.1274 18.1915 43.2407C18.1915 44.354 17.9571 45.0376 17.3321 45.8091C16.4532 46.8833 15.4766 47.3325 13.8555 47.4106C11.9512 47.4985 12.0001 47.4204 12.0001 50.6821C12.0001 53.4751 12.0782 53.9829 12.6348 55.0474C13.211 56.1509 14.2754 57.0688 15.4669 57.5278C16.0528 57.7427 16.0919 57.7427 22.9376 57.7915C26.7266 57.8208 36.1504 57.8208 43.8848 57.7915L57.9473 57.7427L58.5333 57.5278C59.7442 57.0688 60.7794 56.1606 61.3653 55.0474C61.9219 53.9829 62.0001 53.4751 62.0001 50.6333V48.104L61.668 47.772C61.3458 47.4497 61.3165 47.4399 60.5645 47.4399C58.9336 47.4399 57.9083 47.0688 56.9903 46.1606C55.3497 44.52 55.3497 41.9517 56.9903 40.3306C57.8985 39.4321 58.9532 39.0415 60.4961 39.0415C61.9708 39.0415 62.0001 38.9731 62.0001 35.7993C62.0001 33.0747 61.9219 32.5278 61.4239 31.5415C60.7305 30.1646 59.5001 29.188 57.9473 28.7974L57.5567 28.6899L55.7208 23.2993C54.5684 19.8911 53.7872 17.7622 53.6211 17.5181C53.2696 17.0103 52.5958 16.522 52.0001 16.3364C51.5313 16.1997 50.584 16.1509 50.2813 16.2583ZM51.5508 18.3872C51.7071 18.4653 51.8829 18.6216 51.9415 18.729C52.0879 18.9927 55.2618 28.4067 55.2618 28.563C55.2618 28.6704 52.42 28.6899 39.1778 28.6899C30.3399 28.6899 23.1329 28.6606 23.1622 28.6313C23.2794 28.5044 50.8282 18.2505 51.043 18.2505C51.17 18.2407 51.3946 18.3091 51.5508 18.3872ZM28.6993 31.4829C28.6993 32.1665 28.7188 32.2446 28.9825 32.5083C29.1876 32.7134 29.3633 32.7915 29.6172 32.7915C30.4083 32.7915 30.7501 32.3716 30.7501 31.3853V30.7407L44.1583 30.7603L57.5567 30.7896L58.0743 31.0239C58.709 31.3071 59.4708 32.1274 59.7149 32.7622C59.8516 33.1333 59.8907 33.6313 59.9297 35.106L59.9688 36.9907H59.6368C58.9922 37.0005 57.9278 37.2837 57.1172 37.6841C55.5352 38.4556 54.2559 40.0669 53.8555 41.7759C53.6602 42.5864 53.6602 43.895 53.8555 44.7056C54.2559 46.4146 55.5352 48.0259 57.1172 48.7974C57.9278 49.1978 58.9922 49.481 59.6368 49.4907H59.9688L59.9297 51.3657C59.8907 52.8501 59.8516 53.3481 59.7149 53.7192C59.4708 54.354 58.709 55.1743 58.0743 55.4575L57.5567 55.6919L44.1583 55.7212L30.7501 55.7407V55.0962C30.7501 54.1099 30.4083 53.6899 29.6172 53.6899C29.3633 53.6899 29.1876 53.7681 28.9825 53.9731C28.7188 54.2368 28.6993 54.3149 28.6993 55.0083V55.7505L22.5762 55.7212L16.4434 55.6919L15.9258 55.4575C15.2911 55.1743 14.5294 54.354 14.2852 53.7192C14.1485 53.3481 14.1094 52.8501 14.0704 51.3657L14.0313 49.4907H14.3633C15.0079 49.481 16.0723 49.1978 16.8829 48.7974C18.4649 48.0259 19.7442 46.4146 20.1446 44.7056C20.3399 43.895 20.3399 42.5864 20.1446 41.7759C19.7442 40.0669 18.4649 38.4556 16.8829 37.6841C16.0723 37.2935 15.0079 37.0005 14.3731 36.9907H14.0508V35.3794C14.0508 33.7681 14.1485 32.9771 14.4122 32.4595C14.6172 32.0591 15.3106 31.3364 15.6524 31.1606C16.4141 30.7603 16.5411 30.7505 22.7227 30.7505L28.6993 30.7407V31.4829Z" fill="#79747E"/>
<path d="M29.3243 36.1117C29.2071 36.1508 29.0215 36.3168 28.9044 36.4633C28.709 36.7074 28.6993 36.8246 28.6993 38.8364C28.6993 41.1801 28.7188 41.2875 29.334 41.5414C29.7833 41.727 30.3106 41.561 30.5547 41.1606C30.7305 40.8774 30.7501 40.6528 30.7501 38.8754C30.7501 37.7914 30.711 36.7953 30.6524 36.6586C30.545 36.3754 30.0176 36.0141 29.7247 36.0239C29.6172 36.0239 29.4317 36.0629 29.3243 36.1117Z" fill="#79747E"/>
<path d="M29.4122 44.9203C29.2462 44.9594 29.0118 45.1156 28.9044 45.2523C28.709 45.4965 28.6993 45.643 28.6993 47.6449V49.7836L28.9727 50.0765C29.4999 50.6997 30.3985 50.4867 30.6524 49.8226C30.711 49.6859 30.7501 48.6898 30.7501 47.6058C30.7501 45.809 30.7305 45.6039 30.5547 45.3109C30.4473 45.1449 30.3497 44.9984 30.3399 44.9984C30.3204 44.9984 30.1739 44.9594 30.0176 44.9203C29.8516 44.8715 29.588 44.8715 29.4122 44.9203Z" fill="#79747E"/>
</svg>
