<svg width="56" height="56" viewBox="0 0 56 56" fill="none" xmlns="http://www.w3.org/2000/svg">
<rect width="56" height="56" rx="28" fill="#0B961E" fill-opacity="0.04"/>
<path d="M41.3333 28V34.6666C41.3333 38.6666 38.6667 41.3333 34.6667 41.3333H21.3333C17.3333 41.3333 14.6667 38.6666 14.6667 34.6666V28C14.6667 24.3733 16.8533 21.84 20.2533 21.4133C20.6 21.36 20.96 21.3333 21.3333 21.3333H34.6667C35.0133 21.3333 35.3467 21.3466 35.6667 21.4C39.1067 21.8 41.3333 24.3466 41.3333 28Z" stroke="#65B554" stroke-width="1.5" stroke-linecap="round" stroke-linejoin="round"/>
<path d="M41.3333 28V34.6666C41.3333 38.6666 38.6667 41.3333 34.6667 41.3333H21.3333C17.3333 41.3333 14.6667 38.6666 14.6667 34.6666V28C14.6667 24.3733 16.8533 21.84 20.2533 21.4133C20.6 21.36 20.96 21.3333 21.3333 21.3333H34.6667C35.0133 21.3333 35.3467 21.3466 35.6667 21.4C39.1067 21.8 41.3333 24.3466 41.3333 28Z" stroke="black" stroke-opacity="0.15" stroke-width="1.5" stroke-linecap="round" stroke-linejoin="round"/>
<path d="M35.6686 21.4C35.3486 21.3467 35.0152 21.3334 34.6686 21.3334H21.3352C20.9619 21.3334 20.6019 21.36 20.2552 21.4134C20.4419 21.04 20.7086 20.6934 21.0286 20.3734L25.3619 16.0267C27.1886 14.2134 30.1486 14.2134 31.9752 16.0267L34.3086 18.3867C35.1619 19.2267 35.6152 20.2934 35.6686 21.4Z" stroke="#65B554" stroke-width="1.5" stroke-linecap="round" stroke-linejoin="round"/>
<path d="M35.6686 21.4C35.3486 21.3467 35.0152 21.3334 34.6686 21.3334H21.3352C20.9619 21.3334 20.6019 21.36 20.2552 21.4134C20.4419 21.04 20.7086 20.6934 21.0286 20.3734L25.3619 16.0267C27.1886 14.2134 30.1486 14.2134 31.9752 16.0267L34.3086 18.3867C35.1619 19.2267 35.6152 20.2934 35.6686 21.4Z" stroke="black" stroke-opacity="0.15" stroke-width="1.5" stroke-linecap="round" stroke-linejoin="round"/>
<path d="M41.3333 28.6667H37.3333C35.8667 28.6667 34.6667 29.8667 34.6667 31.3334C34.6667 32.8 35.8667 34 37.3333 34H41.3333" stroke="#65B554" stroke-width="1.5" stroke-linecap="round" stroke-linejoin="round"/>
<path d="M41.3333 28.6667H37.3333C35.8667 28.6667 34.6667 29.8667 34.6667 31.3334C34.6667 32.8 35.8667 34 37.3333 34H41.3333" stroke="black" stroke-opacity="0.15" stroke-width="1.5" stroke-linecap="round" stroke-linejoin="round"/>
</svg>
